<?xml version="1.0" encoding="UTF-8"?>
<svg width="22px" height="18px" viewBox="0 0 22 18" version="1.1" xmlns="http://www.w3.org/2000/svg" xmlns:xlink="http://www.w3.org/1999/xlink">
    <title>a4a40c9c5fd065416d8e6bf3ea9a1870</title>
    <g id="Symbols" stroke="none" stroke-width="1" fill="none" fill-rule="evenodd">
        <g id="Icons/icon-buildings" transform="translate(0.000000, -2.000000)" fill="#555555" fill-rule="nonzero">
            <g id="a4a40c9c5fd065416d8e6bf3ea9a1870" transform="translate(0.000000, 2.000000)">
                <path d="M21.3130612,16.962449 L21.3130612,1.55795918 L15.0991837,1.55795918 L15.0991837,0.0157142857 L6.90081633,0.0157142857 L6.90081633,1.55795918 L0.686938776,1.55795918 L0.686938776,16.962449 L0,16.962449 L0,17.9008163 L0.686938776,17.9008163 L9.43306122,17.9008163 L12.5691837,17.9008163 L21.3153061,17.9008163 L22,17.9008163 L22,16.962449 L21.3130612,16.962449 Z M8.49469388,16.962449 L1.62530612,16.962449 L1.62530612,2.49632653 L8.49469388,2.49632653 L8.49469388,16.962449 Z M12.5669388,16.962449 L9.43306122,16.962449 L9.43306122,15.334898 L12.5691837,15.334898 L12.5691837,16.962449 L12.5669388,16.962449 Z M12.5669388,1.84979592 L11.4893878,1.84979592 L11.4893878,3.34265306 L12.5669388,3.34265306 L12.5669388,4.25632653 L11.4893878,4.25632653 L11.4893878,5.74918367 L12.5669388,5.74918367 L12.5669388,6.66285714 L11.4893878,6.66285714 L11.4893878,8.15571429 L12.5669388,8.15571429 L12.5669388,9.06938776 L11.4893878,9.06938776 L11.4893878,10.5622449 L12.5669388,10.5622449 L12.5669388,11.4759184 L11.4893878,11.4759184 L11.4893878,12.9687755 L12.5669388,12.9687755 L12.5669388,14.454898 L9.43306122,14.454898 L9.43306122,12.9687755 L10.5106122,12.9687755 L10.5106122,11.4759184 L9.43306122,11.4759184 L9.43306122,10.5622449 L10.5106122,10.5622449 L10.5106122,9.06938776 L9.43306122,9.06938776 L9.43306122,8.15571429 L10.5106122,8.15571429 L10.5106122,6.66285714 L9.43306122,6.66285714 L9.43306122,5.74918367 L10.5106122,5.74918367 L10.5106122,4.25632653 L9.43306122,4.25632653 L9.43306122,3.34265306 L10.5106122,3.34265306 L10.5106122,1.84979592 L9.43306122,1.84979592 L9.43306122,1.55795918 L7.78081633,1.55795918 L7.78081633,0.893469388 L14.2214286,0.893469388 L14.2214286,1.55795918 L12.5691837,1.55795918 L12.5669388,1.84979592 L12.5669388,1.84979592 Z M20.3746939,16.962449 L13.5053061,16.962449 L13.5053061,2.49632653 L20.3746939,2.49632653 L20.3746939,16.962449 Z" id="Shape"></path>
                <rect id="Rectangle" x="14.4144898" y="3.5155102" width="2.00244898" height="1.59163265"></rect>
                <rect id="Rectangle" x="17.4630612" y="3.5155102" width="2.00244898" height="1.59163265"></rect>
                <rect id="Rectangle" x="14.4144898" y="6.08367347" width="2.00244898" height="1.59163265"></rect>
                <rect id="Rectangle" x="17.4630612" y="6.08367347" width="2.00244898" height="1.59163265"></rect>
                <rect id="Rectangle" x="14.4144898" y="8.64959184" width="2.00244898" height="1.59163265"></rect>
                <rect id="Rectangle" x="17.4630612" y="8.64959184" width="2.00244898" height="1.59163265"></rect>
                <rect id="Rectangle" x="14.4144898" y="11.2177551" width="2.00244898" height="1.59163265"></rect>
                <rect id="Rectangle" x="17.4630612" y="11.2177551" width="2.00244898" height="1.59163265"></rect>
                <rect id="Rectangle" x="14.4144898" y="13.7859184" width="2.00244898" height="1.59163265"></rect>
                <rect id="Rectangle" x="17.4630612" y="13.7859184" width="2.00244898" height="1.59163265"></rect>
                <rect id="Rectangle" x="2.5344898" y="3.5155102" width="2.00244898" height="1.59163265"></rect>
                <rect id="Rectangle" x="5.58306122" y="3.5155102" width="2.00244898" height="1.59163265"></rect>
                <rect id="Rectangle" x="2.5344898" y="6.08367347" width="2.00244898" height="1.59163265"></rect>
                <rect id="Rectangle" x="5.58306122" y="6.08367347" width="2.00244898" height="1.59163265"></rect>
                <rect id="Rectangle" x="2.5344898" y="8.64959184" width="2.00244898" height="1.59163265"></rect>
                <rect id="Rectangle" x="5.58306122" y="8.64959184" width="2.00244898" height="1.59163265"></rect>
                <rect id="Rectangle" x="2.5344898" y="11.2177551" width="2.00244898" height="1.59163265"></rect>
                <rect id="Rectangle" x="5.58306122" y="11.2177551" width="2.00244898" height="1.59163265"></rect>
                <rect id="Rectangle" x="2.5344898" y="13.7859184" width="2.00244898" height="1.59163265"></rect>
                <rect id="Rectangle" x="5.58306122" y="13.7859184" width="2.00244898" height="1.59163265"></rect>
            </g>
        </g>
    </g>
</svg>
