<?xml version="1.0" encoding="UTF-8"?>
<svg width="21px" height="22px" viewBox="0 0 21 22" version="1.1" xmlns="http://www.w3.org/2000/svg" xmlns:xlink="http://www.w3.org/1999/xlink">
    <title>Building-595b40b85ba036ed117dbf49</title>
    <g id="Symbols" stroke="none" stroke-width="1" fill="none" fill-rule="evenodd">
        <g id="Icons/icon-building" transform="translate(-1.000000, 0.000000)" fill="#555555" fill-rule="nonzero">
            <g id="Building-595b40b85ba036ed117dbf49" transform="translate(1.000000, 0.000000)">
                <path d="M2.53846154,0 C1.14648532,0 0,1.14648532 0,2.53846154 L0,22 L20.3076923,22 L20.3076923,21.1538462 L20.3076923,2.53846154 C20.3076923,1.14648532 19.1612063,0 17.7692308,0 L2.53846154,0 Z M2.53846154,1.69230769 L17.7692308,1.69230769 C18.2455629,1.69230769 18.6153846,2.06213006 18.6153846,2.53846154 L18.6153846,20.3076923 L11.8461538,20.3076923 L11.8461538,16.9230769 L8.46153846,16.9230769 L8.46153846,20.3076923 L1.69230769,20.3076923 L1.69230769,2.53846154 C1.69230769,2.06213006 2.06213006,1.69230769 2.53846154,1.69230769 Z M3.38461538,3.38461538 L3.38461538,5.07692308 L6.76923077,5.07692308 L6.76923077,3.38461538 L3.38461538,3.38461538 Z M8.46153846,3.38461538 L8.46153846,5.07692308 L11.8461538,5.07692308 L11.8461538,3.38461538 L8.46153846,3.38461538 Z M13.5384615,3.38461538 L13.5384615,5.07692308 L16.9230769,5.07692308 L16.9230769,3.38461538 L13.5384615,3.38461538 Z M3.38461538,6.76923077 L3.38461538,8.46153846 L6.76923077,8.46153846 L6.76923077,6.76923077 L3.38461538,6.76923077 Z M8.46153846,6.76923077 L8.46153846,8.46153846 L11.8461538,8.46153846 L11.8461538,6.76923077 L8.46153846,6.76923077 Z M13.5384615,6.76923077 L13.5384615,8.46153846 L16.9230769,8.46153846 L16.9230769,6.76923077 L13.5384615,6.76923077 Z M3.38461538,10.1538462 L3.38461538,11.8461538 L6.76923077,11.8461538 L6.76923077,10.1538462 L3.38461538,10.1538462 Z M8.46153846,10.1538462 L8.46153846,11.8461538 L11.8461538,11.8461538 L11.8461538,10.1538462 L8.46153846,10.1538462 Z M13.5384615,10.1538462 L13.5384615,11.8461538 L16.9230769,11.8461538 L16.9230769,10.1538462 L13.5384615,10.1538462 Z M3.38461538,13.5384615 L3.38461538,15.2307692 L6.76923077,15.2307692 L6.76923077,13.5384615 L3.38461538,13.5384615 Z M8.46153846,13.5384615 L8.46153846,15.2307692 L11.8461538,15.2307692 L11.8461538,13.5384615 L8.46153846,13.5384615 Z M13.5384615,13.5384615 L13.5384615,15.2307692 L16.9230769,15.2307692 L16.9230769,13.5384615 L13.5384615,13.5384615 Z M3.38461538,16.9230769 L3.38461538,18.6153846 L6.76923077,18.6153846 L6.76923077,16.9230769 L3.38461538,16.9230769 Z M13.5384615,16.9230769 L13.5384615,18.6153846 L16.9230769,18.6153846 L16.9230769,16.9230769 L13.5384615,16.9230769 Z" id="Shape"></path>
            </g>
        </g>
    </g>
</svg>
