<?xml version="1.0" encoding="UTF-8"?>
<svg width="20px" height="22px" viewBox="0 0 20 22" version="1.1" xmlns="http://www.w3.org/2000/svg" xmlns:xlink="http://www.w3.org/1999/xlink">
    <title>Calendar-595b40b75ba036ed117d9226</title>
    <g id="Symbols" stroke="none" stroke-width="1" fill="none" fill-rule="evenodd">
        <g id="Icons/icon-calendar" transform="translate(-1.000000, 0.000000)" fill="#555555" fill-rule="nonzero">
            <g id="Calendar-595b40b75ba036ed117d9226" transform="translate(1.000000, 0.000000)">
                <path d="M3.3,0 L3.3,2.2 L2.2,2.2 C0.99,2.2 0,3.19 0,4.4 L0,19.8 C0,21.01 0.99,22 2.2,22 L17.6,22 C18.81,22 19.8,21.01 19.8,19.8 L19.8,4.4 C19.8,3.19 18.81,2.2 17.6,2.2 L16.5,2.2 L16.5,0 L14.3,0 L14.3,2.2 L5.5,2.2 L5.5,0 L3.3,0 Z M2.2,7.7 L17.6,7.7 L17.6,19.8 L2.2,19.8 L2.2,7.7 Z M9.9,12.1 L9.9,17.6 L15.4,17.6 L15.4,12.1 L9.9,12.1 Z" id="Shape"></path>
            </g>
        </g>
    </g>
</svg>
