<?xml version="1.0" encoding="UTF-8"?>
<svg width="22px" height="22px" viewBox="0 0 22 22" version="1.1" xmlns="http://www.w3.org/2000/svg" xmlns:xlink="http://www.w3.org/1999/xlink">
    <title>Gantt Chart-595b40b75ba036ed117d7e17</title>
    <g id="Symbols" stroke="none" stroke-width="1" fill="none" fill-rule="evenodd">
        <g id="Icons/icon-gantt-chart" fill="#555555" fill-rule="nonzero">
            <g id="Gantt-Chart-595b40b75ba036ed117d7e17">
                <path d="M2.44444444,0 C1.1084788,0 0,1.1084788 0,2.44444444 L0,19.5555556 C0,20.8915214 1.1084788,22 2.44444444,22 L19.5555556,22 C20.8915214,22 22,20.8915214 22,19.5555556 L22,2.44444444 C22,1.1084788 20.8915214,0 19.5555556,0 L2.44444444,0 Z M7.33333333,2.44444444 L9.77777778,2.44444444 L9.77777778,4.88888889 L7.33333333,4.88888889 L7.33333333,2.44444444 Z M12.2222222,2.44444444 L14.6666667,2.44444444 L14.6666667,4.88888889 L12.2222222,4.88888889 L12.2222222,2.44444444 Z M17.1111111,2.44444444 L19.5555556,2.44444444 L19.5555556,4.88888889 L17.1111111,4.88888889 L17.1111111,2.44444444 Z M2.44444444,7.33333333 L4.88888889,7.33333333 L4.88888889,9.77777778 L2.44444444,9.77777778 L2.44444444,7.33333333 Z M12.2222222,7.33333333 L14.6666667,7.33333333 L14.6666667,9.77777778 L12.2222222,9.77777778 L12.2222222,7.33333333 Z M17.1111111,7.33333333 L19.5555556,7.33333333 L19.5555556,9.77777778 L17.1111111,9.77777778 L17.1111111,7.33333333 Z M2.44444444,12.2222222 L4.88888889,12.2222222 L4.88888889,14.6666667 L2.44444444,14.6666667 L2.44444444,12.2222222 Z M7.33333333,12.2222222 L9.77777778,12.2222222 L9.77777778,14.6666667 L7.33333333,14.6666667 L7.33333333,12.2222222 Z M17.1111111,12.2222222 L19.5555556,12.2222222 L19.5555556,14.6666667 L17.1111111,14.6666667 L17.1111111,12.2222222 Z M2.44444444,17.1111111 L4.88888889,17.1111111 L4.88888889,19.5555556 L2.44444444,19.5555556 L2.44444444,17.1111111 Z M7.33333333,17.1111111 L9.77777778,17.1111111 L9.77777778,19.5555556 L7.33333333,19.5555556 L7.33333333,17.1111111 Z M12.2222222,17.1111111 L14.6666667,17.1111111 L14.6666667,19.5555556 L12.2222222,19.5555556 L12.2222222,17.1111111 Z" id="Shape"></path>
            </g>
        </g>
    </g>
</svg>
