<?xml version="1.0" encoding="UTF-8"?>
<svg width="17px" height="22px" viewBox="0 0 17 22" version="1.1" xmlns="http://www.w3.org/2000/svg" xmlns:xlink="http://www.w3.org/1999/xlink">
    <title>d92762db4079be1854a83d337fa83a1d</title>
    <g id="Symbols" stroke="none" stroke-width="1" fill="none" fill-rule="evenodd">
        <g id="Icons/icon-checklist" transform="translate(-3.000000, 0.000000)" fill="#555555" fill-rule="nonzero">
            <g id="d92762db4079be1854a83d337fa83a1d" transform="translate(3.000000, 0.000000)">
                <g id="Group" transform="translate(8.006735, 11.000000) scale(-1, 1) rotate(-180.000000) translate(-8.006735, -11.000000) translate(0.006735, 0.000000)">
                    <path d="M7.42679592,21.9351224 C6.83571429,21.7755102 6.29626531,21.3182245 6.06346939,20.7787755 L5.93842857,20.4941224 L5.04967347,20.4941224 C4.24712245,20.4941224 4.15216327,20.4855918 4.02712245,20.4079184 C3.8544898,20.3044286 3.75526531,20.1187755 3.75526531,19.8902449 L3.75526531,19.7176122 L2.88379592,19.7176122 C2.40069388,19.7176122 1.88279592,19.6960612 1.72744898,19.6702449 C0.899081633,19.536449 0.200020408,18.8504082 0.0491632653,18.0177755 C0.0145918367,17.8366122 0.00175998536,15.3470204 0.00175998536,9.84185714 C0.00175998536,1.23873469 -0.00673469388,1.60532653 0.239081633,1.11795918 C0.398693878,0.807265306 0.76977551,0.427653061 1.07620408,0.26355102 C1.59836735,-0.0125714286 1.21853061,0.000352274252 7.94065306,0.000352274252 C14.6627755,0.000352274252 14.2829388,-0.0125714286 14.805102,0.26355102 C15.1115306,0.427428571 15.4826122,0.807265306 15.6422245,1.11795918 C15.8882653,1.60555102 15.8795489,1.23873469 15.8795489,9.84185714 C15.8795489,15.3472449 15.8664898,17.8366122 15.8321429,18.0177755 C15.6810612,18.8504082 14.9822245,19.536449 14.1538571,19.6702449 C13.9985102,19.6960612 13.4808367,19.7176122 13.0017755,19.7176122 L12.1258163,19.7176122 L12.1258163,19.8902449 C12.1258163,20.119 12.0265918,20.3044286 11.8539592,20.4079184 C11.7289184,20.4855918 11.6339592,20.4941224 10.8314082,20.4941224 L9.94265306,20.4941224 L9.81693878,20.7787755 C9.42879592,21.6720204 8.36291837,22.1896939 7.42679592,21.9351224 Z M8.1774898,20.834898 C8.4062449,20.7787755 8.67787755,20.5545102 8.78159184,20.3387755 C8.82042857,20.2568367 8.87228571,20.0669184 8.88934694,19.9203265 C8.91965306,19.7131224 8.954,19.6311837 9.06197959,19.5276939 L9.1915102,19.393898 L10.097551,19.3808776 L11.0035918,19.3678571 L11.0035918,18.7853061 L11.0035918,18.2072449 L7.94020408,18.2072449 L4.87681633,18.2072449 L4.87681633,18.7853061 L4.87681633,19.3678571 L5.77859184,19.3808776 L6.68463265,19.393898 L6.81416327,19.5189388 C6.89610204,19.5966122 6.9564898,19.7088571 6.9695102,19.7993265 C7.073,20.4335102 7.22834694,20.6622653 7.67283673,20.8218776 C7.87128571,20.8910204 7.94020408,20.8952857 8.1774898,20.834898 Z M3.75504082,17.9010408 C3.75504082,17.3876327 3.81116327,17.258102 4.07853061,17.1287959 C4.25116327,17.0468571 4.35891837,17.0425918 7.93997959,17.0425918 C11.5598776,17.0425918 11.6245306,17.0425918 11.8056939,17.1287959 C12.0645306,17.2538367 12.1249184,17.4091837 12.1249184,17.9225918 L12.1249184,18.3367755 L13.0697959,18.3367755 C13.9758367,18.3367755 14.0146735,18.3325102 14.157,18.237551 C14.2346735,18.1856939 14.3469184,18.0736735 14.398551,17.996 L14.4977755,17.8494082 L14.4977755,9.87171429 C14.4977755,0.975183673 14.5235918,1.70432653 14.200102,1.48432653 L14.0447551,1.38083673 L7.94020408,1.38083673 L1.83520408,1.38083673 L1.67985714,1.48432653 C1.35636735,1.70432653 1.38218367,0.975183673 1.38218367,9.87171429 L1.38218367,17.8494082 L1.48140816,17.996 C1.53326531,18.0736735 1.64528571,18.1859184 1.72295918,18.237551 C1.86528571,18.3325102 1.90412245,18.3367755 2.81016327,18.3367755 L3.75504082,18.3367755 L3.75504082,17.9010408 Z" id="Shape"></path>
                    <path d="M5.45061224,15.6963265 C5.4032449,15.6402041 5.12712245,15.2821429 4.83797959,14.8980408 C4.54883673,14.5096735 4.30728571,14.1947143 4.29426531,14.1947143 C4.28573469,14.1947143 4.16046939,14.3457959 4.01814286,14.5354898 C3.87581633,14.7211429 3.729,14.8850204 3.69016327,14.9023061 C3.36218367,15.0273469 3.06877551,14.7384286 3.21559184,14.4407551 C3.34938776,14.1731633 4.07426531,13.2716122 4.19077551,13.2370408 C4.41077551,13.1636327 4.50573469,13.2543265 5.24789796,14.2465714 C5.64906122,14.773 5.99859184,15.256102 6.02889796,15.3209796 C6.09781633,15.4547755 6.03316327,15.6833061 5.91238776,15.7481837 C5.77006122,15.8258571 5.54557143,15.7998163 5.45061224,15.6963265 Z" id="Path"></path>
                    <path d="M7.00385714,14.7126122 C6.65432653,14.5011429 6.65006122,13.9792041 6.99959184,13.7634694 C7.13765306,13.6815306 7.21106122,13.6772653 9.75655102,13.6772653 L12.3711837,13.6772653 L12.5177755,13.7764898 C12.6127347,13.8411429 12.6861429,13.9403673 12.7292449,14.0568776 C12.7853673,14.2164898 12.7853673,14.2595918 12.7292449,14.4192041 C12.6861429,14.5357143 12.6127347,14.6349388 12.5177755,14.6995918 L12.3711837,14.7988236 L9.75655102,14.7988236 C7.24114286,14.7990408 7.13765306,14.794551 7.00385714,14.7126122 Z" id="Path"></path>
                    <path d="M5.5197551,12.5597551 C5.45510204,12.5123878 5.15742857,12.1413061 4.851,11.7313878 C4.32457143,11.0280612 4.2944898,10.9977551 4.23410204,11.0754286 C4.19526531,11.1227959 4.0744898,11.2824082 3.95797959,11.4292245 C3.84573469,11.5760408 3.70340816,11.714102 3.6387551,11.7399184 C3.49642857,11.7917755 3.29797959,11.7226327 3.22883673,11.593102 C3.12961224,11.4031837 3.18146939,11.2738776 3.58263265,10.7344286 C4.05293878,10.1045102 4.10906122,10.0526531 4.2944898,10.0526531 C4.37216327,10.0526531 4.47565306,10.0872245 4.5232449,10.1303265 C4.57061224,10.1691633 4.93316327,10.6394694 5.33432653,11.1744286 C5.92540816,11.9682245 6.05920408,12.1711633 6.05920408,12.2876735 C6.05897959,12.5640204 5.73122449,12.727898 5.5197551,12.5597551 Z" id="Path"></path>
                    <path d="M6.97377551,11.5156531 C6.63726531,11.2523265 6.67183673,10.7604694 7.03842857,10.5620204 C7.1764898,10.4886122 7.34912245,10.4843469 9.75228571,10.4843469 C12.155449,10.4843469 12.3280816,10.4886122 12.4661429,10.5620204 C12.8329592,10.7604694 12.8673061,11.2523265 12.5307959,11.5156531 C12.418551,11.6063469 12.3884694,11.6063469 9.75228571,11.6063469 C7.11610204,11.6061224 7.08602041,11.6061224 6.97377551,11.5156531 Z" id="Path"></path>
                    <path d="M5.58014286,9.49210204 C5.53277551,9.47055102 5.22208163,9.09946939 4.89410204,8.668 L4.2987551,7.88273469 L4.21255102,7.9904898 C4.16069388,8.04661224 4.03138776,8.2147551 3.91914286,8.36157143 C3.72495918,8.61187755 3.69914286,8.62916327 3.53953061,8.62916327 C3.28069388,8.62916327 3.16418367,8.49110204 3.19426531,8.2192449 C3.20728571,8.08971429 4.05293878,6.98971429 4.17371429,6.94212245 C4.39797959,6.86018367 4.46712245,6.92483673 5.23083673,7.92583673 C5.6364898,8.46079592 5.99455102,8.95265306 6.02463265,9.01730612 C6.11083673,9.18993878 6.02889796,9.39691837 5.84346939,9.47459184 C5.76579592,9.50916327 5.69238776,9.53497959 5.68812245,9.53071429 C5.67936735,9.53093878 5.632,9.51365306 5.58014286,9.49210204 Z" id="Path"></path>
                    <path d="M7.03842857,8.37885714 C6.75804082,8.22777551 6.65432653,7.86971429 6.81842857,7.60661224 C7.00385714,7.29591837 6.8442449,7.31320408 9.75228571,7.31320408 C12.198551,7.31320408 12.375449,7.31746939 12.4834286,7.39087755 C12.8803265,7.64971429 12.8459796,8.17187755 12.4187755,8.39614286 C12.3238163,8.44777551 11.8577755,8.45653061 9.7437551,8.45653061 C7.34485714,8.45653061 7.1764898,8.45226531 7.03842857,8.37885714 Z" id="Path"></path>
                    <path d="M5.53277551,6.35530612 C5.50246939,6.34228571 5.21355102,5.98422449 4.89410204,5.5615102 C4.57487755,5.13879592 4.30728571,4.78926531 4.2944898,4.78926531 C4.28595918,4.78926531 4.16069388,4.94034694 4.01836735,5.13004082 C3.87604082,5.31546939 3.72922449,5.47957143 3.69038776,5.49685714 C3.44434694,5.58755102 3.1812449,5.42344898 3.1812449,5.17763265 C3.1812449,5.0137551 4.02263265,3.88322449 4.1865102,3.82710204 C4.4022449,3.75369388 4.50146939,3.84865306 5.24789796,4.84112245 C5.64906122,5.36755102 5.99859184,5.85065306 6.02889796,5.91553061 C6.09781633,6.04932653 6.03316327,6.27785714 5.91238776,6.34273469 C5.82618367,6.38561224 5.6275102,6.39414286 5.53277551,6.35530612 Z" id="Path"></path>
                    <path d="M6.99959184,5.17763265 C6.74502041,5.02228571 6.66308163,4.6684898 6.81842857,4.41391837 C6.98679592,4.13353061 6.88757143,4.14206122 9.76530612,4.14206122 L12.3711837,4.14206122 L12.5177755,4.24128571 C12.6127347,4.30593878 12.6861429,4.40516327 12.7292449,4.52167347 C12.7853673,4.68128571 12.7853673,4.72438776 12.7292449,4.884 C12.6861429,5.0005102 12.6127347,5.09973469 12.5177755,5.16438776 L12.3711837,5.26361977 L9.75655102,5.26361977 C7.21106122,5.26383673 7.13765306,5.25957143 6.99959184,5.17763265 Z" id="Path"></path>
                </g>
            </g>
        </g>
    </g>
</svg>
