<?xml version="1.0" encoding="UTF-8"?>
<svg width="22px" height="22px" viewBox="0 0 22 22" version="1.1" xmlns="http://www.w3.org/2000/svg" xmlns:xlink="http://www.w3.org/1999/xlink">
    <title>Gear-595b40b85ba036ed117dc146</title>
    <g id="Symbols" stroke="none" stroke-width="1" fill="none" fill-rule="evenodd">
        <g id="Icons/icon-gear" fill="#555555" fill-rule="nonzero">
            <g id="Gear-595b40b85ba036ed117dc146">
                <path d="M9.30769231,0 C8.8403938,0 8.46158518,0.378855336 8.46153846,0.846153846 L8.46153846,2.16496398 C7.78618212,2.36459622 7.15028837,2.62922643 6.55438706,2.96484371 L5.61568514,2.02614178 C5.28523678,1.69583001 4.74961899,1.69583001 4.41917063,2.02614178 L2.02614178,4.41917063 C1.69583001,4.74961899 1.69583001,5.28523678 2.02614178,5.61568514 L2.97145437,6.56099755 C2.63877206,7.15664705 2.37536877,7.7908424 2.17818514,8.46153846 L0.846153846,8.46153846 C0.378855336,8.46158518 0,8.8403938 0,9.30769231 L0,12.6923077 C0,13.1596062 0.378855336,13.5384148 0.846153846,13.5384615 L2.16496398,13.5384615 C2.36459622,14.2138179 2.62922643,14.8497118 2.96484371,15.4456128 L2.02614178,16.3843155 C1.69583035,16.7147638 1.69583035,17.2503812 2.02614178,17.5808295 L4.41917063,19.9738575 C4.74961899,20.3041693 5.28523678,20.3041693 5.61568514,19.9738575 L6.56099755,19.0285463 C7.15501786,19.3609375 7.78822998,19.6249274 8.45823322,19.8218155 L8.45823322,21.1538462 C8.45827994,21.6211447 8.83708855,22 9.30438706,22 L12.6890024,22 C13.156301,22 13.5351096,21.6211447 13.5351563,21.1538462 L13.5351563,19.8350358 C14.2099537,19.6356228 14.846823,19.3703485 15.4423077,19.0351565 L16.3843155,19.9738575 C16.7147638,20.304169 17.2503812,20.304169 17.5808295,19.9738575 L19.9738575,17.5808295 C20.304169,17.2503812 20.304169,16.7147638 19.9738575,16.3843155 L19.0252412,15.4390026 C19.3579117,14.844664 19.6248038,14.2121858 19.8218155,13.5417668 L21.1538462,13.5417668 C21.6211447,13.5417201 22,13.1629114 22,12.6956129 L22,12.6923077 L22,9.30769231 C22,8.8403938 21.6211447,8.46158518 21.1538462,8.46153846 L19.8185105,8.46153846 C19.6278838,7.79265063 19.3691605,7.15499011 19.0384615,6.55108182 L19.9738575,5.61568514 C20.3041693,5.28523678 20.3041693,4.74961899 19.9738575,4.41917063 L17.5841346,2.02614178 C17.4253115,1.86650409 17.2094116,1.77675178 16.9842251,1.77675178 C16.7590385,1.77675178 16.5431387,1.86650409 16.3843155,2.02614178 L15.4522229,2.95823322 C14.8514965,2.62400262 14.2137377,2.35772731 13.5384615,2.16165874 L13.5384615,0.846153846 C13.5384148,0.378855336 13.1596062,0 12.6923077,0 L9.30769231,0 Z M10.1538462,1.69230769 L11.8461538,1.69230769 L11.8461538,2.71033654 C11.84598,3.11282708 12.1293218,3.45974811 12.5237379,3.53996398 C13.4916117,3.73566262 14.3915936,4.11991682 15.194411,4.65054091 C15.5307801,4.87333309 15.9776535,4.82767732 16.2620192,4.54146643 L16.9825717,3.82091346 L18.1790874,5.01742797 L17.4552282,5.74128602 C17.1718319,6.02598286 17.1276379,6.47068421 17.3494589,6.80558898 C17.8723329,7.59366723 18.2386617,8.50262803 18.4402037,9.47956731 C18.5217857,9.87266973 18.8683538,10.1543422 19.2698322,10.1538462 L20.3076923,10.1538462 L20.3076923,11.8494591 L19.2764423,11.8494591 C18.873952,11.8492856 18.5270313,12.1326274 18.4468155,12.5270434 C18.2517314,13.4888507 17.8639611,14.3785045 17.3329335,15.1811899 C17.1111129,15.5160945 17.1553068,15.9607954 17.4387028,16.2454922 L18.1790874,16.9825717 L16.9825717,18.1790874 L16.2454922,17.4453129 C15.9616262,17.1608575 15.5168533,17.1152752 15.1811899,17.3362386 C14.3711192,17.871656 13.4846052,18.2657538 12.5237379,18.4600358 C12.1280075,18.5388785 11.8429911,18.8861562 11.8428486,19.2896643 L11.8428486,20.3076923 L10.1505409,20.3076923 L10.1505409,19.2764423 C10.1507144,18.873952 9.86737259,18.5270313 9.47295665,18.4468155 C8.51114914,18.2517314 7.62149554,17.8639611 6.81881014,17.3329335 C6.48314657,17.1119697 6.03837318,17.157552 5.75450717,17.4420078 L5.01742797,18.1790874 L3.82091346,16.9825717 L4.55468742,16.2487972 C4.8391429,15.9649314 4.8847253,15.5201586 4.66376206,15.1844951 C4.12834383,14.3744246 3.73424582,13.4846052 3.53996398,12.5237379 C3.45974811,12.1293218 3.11282708,11.84598 2.71033654,11.8461538 L1.69230769,11.8461538 L1.69230769,10.1538462 L2.72355769,10.1538462 C3.12604823,10.15402 3.47296926,9.87067818 3.55318514,9.47626206 C3.75013015,8.51274634 4.1360308,7.62303892 4.66706731,6.81881014 C4.88803105,6.48314653 4.84244871,6.03837314 4.55799283,5.75450717 L3.82091346,5.01742797 L5.01742797,3.82091346 L5.75120192,4.55468742 C6.03506785,4.83914335 6.47984125,4.88472576 6.81550489,4.66376206 C7.62557552,4.12834417 8.5153948,3.73424582 9.47626206,3.53996398 C9.87067818,3.45974811 10.15402,3.11282708 10.1538462,2.71033654 L10.1538462,1.69230769 Z M11.1487379,6.77253602 C8.82362089,6.69040663 6.8546654,8.52614518 6.77253602,10.8512621 C6.69040663,13.1763791 8.52614518,15.1453346 10.8512621,15.227464 C13.1763791,15.3095935 15.1453346,13.4738548 15.227464,11.1487379 C15.3095935,8.82362089 13.4738548,6.8546654 11.1487379,6.77253602 Z M11.0892428,8.46153846 C12.5003387,8.51138217 13.5883052,9.67814692 13.5384615,11.0892428 C13.4886178,12.5003387 12.3218531,13.5883052 10.9107572,13.5384615 C9.49966126,13.4886178 8.41169475,12.3218531 8.46153846,10.9107572 C8.51138217,9.49966126 9.67814692,8.41169475 11.0892428,8.46153846 Z" id="Shape"></path>
            </g>
        </g>
    </g>
</svg>
