<?xml version="1.0" encoding="UTF-8"?>
<svg width="22px" height="22px" viewBox="0 0 22 22" version="1.1" xmlns="http://www.w3.org/2000/svg" xmlns:xlink="http://www.w3.org/1999/xlink">
    <title>Help-595b40b65ba036ed117d46ea</title>
    <g id="Symbols" stroke="none" stroke-width="1" fill="none" fill-rule="evenodd">
        <g id="Icons/icon-help" fill="#555555" fill-rule="nonzero">
            <g id="Help-595b40b65ba036ed117d46ea">
                <path d="M11,0.172333333 C5.02058333,0.172333333 0.172333333,5.02058333 0.172333333,11 C0.172333333,16.9794167 5.02058333,21.8285833 11,21.8285833 C16.9794167,21.8285833 21.8285833,16.9794167 21.8285833,11 C21.8285833,5.02058333 16.9794167,0.172333333 11,0.172333333 Z M10.9495833,17.6128333 C10.087,17.6128333 9.405,16.93175 9.405,16.0700833 C9.405,15.2084167 10.0860833,14.5264167 10.9495833,14.5264167 C11.8103333,14.5264167 12.4950833,15.2075 12.4950833,16.0700833 C12.4950833,16.93175 11.81125,17.6128333 10.9495833,17.6128333 Z M13.2238333,10.6168333 L12.2173333,11.49225 C11.4583333,12.1559167 11.5885,12.4840833 11.5885,12.8901667 L10.461,12.8901667 L10.461,12.4785833 C10.461,10.4903333 12.3585,10.1484167 12.3585,7.2105 C12.3585,6.08391667 11.9881667,5.56875 11.0513333,5.56875 C10.1878333,5.56875 9.80191667,5.99041667 9.92475,7.00791667 C10.0026667,7.64775 9.35641667,7.90166667 8.93475,7.90166667 C8.45716667,7.90166667 8.052,7.42775 8.052,6.78058333 C8.052,5.69066667 9.19875,4.54391667 11.1943333,4.54391667 C13.1349167,4.54391667 14.828918,5.42025 14.828918,7.53408333 C14.8298333,8.84216667 14.3531667,9.6305 13.2238333,10.6168333 Z" id="Shape"></path>
            </g>
        </g>
    </g>
</svg>
