<?xml version="1.0" encoding="UTF-8"?>
<svg width="17px" height="22px" viewBox="0 0 17 22" version="1.1" xmlns="http://www.w3.org/2000/svg" xmlns:xlink="http://www.w3.org/1999/xlink">
    <title>Hourglass Sand Top-595b40b65ba036ed117d1de2</title>
    <g id="Symbols" stroke="none" stroke-width="1" fill="none" fill-rule="evenodd">
        <g id="Icons/icon-hourglass" transform="translate(-2.000000, 0.000000)" fill="#555555" fill-rule="nonzero">
            <g id="Hourglass-Sand-Top-595b40b65ba036ed117d1de2" transform="translate(2.000000, 0.000000)">
                <path d="M0,0 L0,1.83333333 L1.88888889,1.83333333 L1.88888889,5.5 C1.88888889,7.830284 3.18152544,9.87581833 5.10590278,11 C3.18152544,12.1241817 1.88888889,14.169716 1.88888889,16.5 L1.88888889,20.1666667 L0,20.1666667 L0,22 L1.88888889,22 L15.1111111,22 L17,22 L17,20.1666667 L15.1111111,20.1666667 L15.1111111,16.5 C15.1111111,14.169716 13.8184746,12.1241817 11.8940972,11 C13.8184746,9.87581833 15.1111111,7.830284 15.1111111,5.5 L15.1111111,1.83333333 L17,1.83333333 L17,0 L0,0 Z M3.77777778,1.83333333 L13.2222222,1.83333333 L13.2222222,5.5 C13.2222222,8.04252717 11.1195734,10.0833333 8.5,10.0833333 C5.88042656,10.0833333 3.77777778,8.04252717 3.77777778,5.5 L3.77777778,1.83333333 Z M4.72222222,3.66666667 L4.72222222,5.5 C4.72222222,7.52491667 6.41372222,9.16666667 8.5,9.16666667 C10.5862778,9.16666667 12.2777778,7.52491667 12.2777778,5.5 L12.2777778,3.66666667 L4.72222222,3.66666667 Z M8.5,11.9166667 C11.1195734,11.9166667 13.2222222,13.9574728 13.2222222,16.5 L13.2222222,20.1666667 L3.77777778,20.1666667 L3.77777778,16.5 C3.77777778,13.9574728 5.88042656,11.9166667 8.5,11.9166667 Z" id="Shape"></path>
            </g>
        </g>
    </g>
</svg>
