<svg id="Layer_1" data-name="Layer 1" xmlns="http://www.w3.org/2000/svg" viewBox="0 0 54.56 58.9"><defs><style>.cls-1{fill:#005089;}</style></defs><path class="cls-1" d="M45.47,6.44H32.94a3.59,3.59,0,0,0-3.55,3.63V26.22a1,1,0,0,0,.68.93,1,1,0,0,0,.3.05,1,1,0,0,0,.8-.4l3-4.1H45.47A3.6,3.6,0,0,0,49,19.07v-9A3.6,3.6,0,0,0,45.47,6.44Zm-2,11.66a3.53,3.53,0,0,1-.91,1.16,4.26,4.26,0,0,1-1.38.75,5.51,5.51,0,0,1-1.76.26,5.15,5.15,0,0,1-2.31-.5,3.72,3.72,0,0,1-1.65-1.59,2.89,2.89,0,0,1-.37-1,4.59,4.59,0,0,1-.1-1h2.86a1.65,1.65,0,0,0,.45,1.18,1.62,1.62,0,0,0,1.15.41,1.39,1.39,0,0,0,1.12-.42,1.51,1.51,0,0,0,.35-1,1.35,1.35,0,0,0-.43-1.09,1.47,1.47,0,0,0-1-.37l-.28,0L38.9,15V13.19l.19,0h.14a1.26,1.26,0,0,0,.89-.32,1.15,1.15,0,0,0,.34-.84,1.07,1.07,0,0,0-.32-.81,1.22,1.22,0,0,0-1.67,0,1.29,1.29,0,0,0-.33.91H35.48a4.85,4.85,0,0,1,.43-1.54,4,4,0,0,1,.85-1.14A3.49,3.49,0,0,1,38,8.8a4.63,4.63,0,0,1,1.53-.24A4.36,4.36,0,0,1,41,8.79a3.3,3.3,0,0,1,1.15.64,2.91,2.91,0,0,1,.74,1,3.35,3.35,0,0,1,.25,1.33,2.5,2.5,0,0,1-.3,1.3A2.77,2.77,0,0,1,42,14a2.46,2.46,0,0,1,1.33.95,2.87,2.87,0,0,1,.48,1.68A3.58,3.58,0,0,1,43.46,18.1Z"/><path class="cls-1" d="M46.23,55.8c0-.06-2.52-5.94-5.59-11.78C35.26,33.79,32.56,31.94,31,31.67V23.1H29.38v8.78c-2.1.74-5.34,3.09-8.89,6.06v-1.8A1.62,1.62,0,0,0,19,34.54l-3.14-.25,2.51-4.52a13.46,13.46,0,0,0,7,1.83c.48,0,1,0,1.5-.07a1.61,1.61,0,0,0-.28-3.21,10.22,10.22,0,0,1-7.24-1.76A4.24,4.24,0,1,0,15.47,25a2.83,2.83,0,0,0-1.88,1.84L10,33.42a2.94,2.94,0,0,0-.08,1.44,1.6,1.6,0,0,0-.1.31L6.56,48.66a1.61,1.61,0,0,0,.56,1.63c-2.38,2.35-4.27,4.27-5.22,5.25a.84.84,0,0,0-.17.93.85.85,0,0,0,.78.52H45.45a.85.85,0,0,0,.78-1.19Zm-36-8.51,2.39-10,4.69.38V39.5a1.63,1.63,0,0,0,.31.94C15.07,42.67,12.51,45.06,10.19,47.29Z"/></svg>