<svg id="Layer_1" data-name="Layer 1" xmlns="http://www.w3.org/2000/svg" viewBox="0 0 54.56 58.9"><defs><style>.cls-1{fill:#005089;}</style></defs><path class="cls-1" d="M51.16,26.53,34.69,24.14,27.33,9.21,20,24.14,3.49,26.53,15.41,38.15l-2.82,16.4L27.33,46.8l14.73,7.75-2.82-16.4Z"/><path class="cls-1" d="M43.07,12.29l-1.51-.48-.46-1.52-.93,1.29-1.59,0,.94,1.28L39,14.33l1.51-.5,1.27,1V13.2Z"/><path class="cls-1" d="M38.19,18l-1.1,0L36.48,17l-.36,1-1.06.3.88.66,0,1.1.9-.63,1,.39-.32-1.06Z"/><path class="cls-1" d="M50.53,18.8H50l-.31-.46-.18.52L49,19l.44.33,0,.55.45-.32.51.2-.16-.53Z"/><circle class="cls-1" cx="34.54" cy="11.87" r="0.66"/><circle class="cls-1" cx="46.11" cy="21.36" r="0.66"/><circle class="cls-1" cx="46.11" cy="15.62" r="1.28"/><circle class="cls-1" cx="35.2" cy="7.09" r="1.42"/><path class="cls-1" d="M12.9,19.13v1.93l1.54-1.16,1.84.61-.64-1.83,1.15-1.56-1.93,0-1.13-1.57-.56,1.85L11.32,18Z"/><path class="cls-1" d="M17.85,6.58l-.32,1.06,1-.39.91.63,0-1.1.87-.66-1.06-.3-.36-1-.6.92-1.11,0Z"/><path class="cls-1" d="M7.18,14,7,14.5l.52-.2.45.32,0-.55.44-.33-.53-.15-.18-.52-.3.46H6.84Z"/><circle class="cls-1" cx="21.46" cy="10.17" r="0.66"/><circle class="cls-1" cx="8.4" cy="22.03" r="0.66"/><circle class="cls-1" cx="13.53" cy="11.98" r="1.16"/><circle class="cls-1" cx="19.81" cy="14.49" r="1.42"/><circle class="cls-1" cx="27.45" cy="6.33" r="0.88"/></svg>