<?xml version="1.0" encoding="UTF-8"?>
<svg width="22px" height="19px" viewBox="0 0 22 19" version="1.1" xmlns="http://www.w3.org/2000/svg" xmlns:xlink="http://www.w3.org/1999/xlink">
    <title>Flow Chart-595b40b65ba036ed117d1c6c</title>
    <g id="Symbols" stroke="none" stroke-width="1" fill="none" fill-rule="evenodd">
        <g id="Icons/icon-flow-chart" transform="translate(0.000000, -1.000000)" fill="#555555" fill-rule="nonzero">
            <g id="Flow-Chart-595b40b65ba036ed117d1c6c" transform="translate(0.000000, 1.000000)">
                <path d="M7.85714286,0 L7.85714286,0.785714286 L7.85714286,4.71428571 L7.85714286,5.5 L8.64285714,5.5 L10.2142857,5.5 L10.2142857,8.64285714 L3.14285714,8.64285714 L2.35714286,8.64285714 L2.35714286,9.42857143 L2.35714286,13.3571429 L0.785714286,13.3571429 L0,13.3571429 L0,14.1428571 L0,18.0714286 L0,18.8571429 L0.785714286,18.8571429 L5.5,18.8571429 L6.28571429,18.8571429 L6.28571429,18.0714286 L6.28571429,14.1428571 L6.28571429,13.3571429 L5.5,13.3571429 L3.92857143,13.3571429 L3.92857143,10.2142857 L10.2142857,10.2142857 L10.2142857,13.3571429 L8.64285714,13.3571429 L7.85714286,13.3571429 L7.85714286,14.1428571 L7.85714286,18.0714286 L7.85714286,18.8571429 L8.64285714,18.8571429 L13.3571429,18.8571429 L14.1428571,18.8571429 L14.1428571,18.0714286 L14.1428571,14.1428571 L14.1428571,13.3571429 L13.3571429,13.3571429 L11.7857143,13.3571429 L11.7857143,10.2142857 L18.0714286,10.2142857 L18.0714286,13.3571429 L16.5,13.3571429 L15.7142857,13.3571429 L15.7142857,14.1428571 L15.7142857,18.0714286 L15.7142857,18.8571429 L16.5,18.8571429 L21.2142857,18.8571429 L22,18.8571429 L22,18.0714286 L22,14.1428571 L22,13.3571429 L21.2142857,13.3571429 L19.6428571,13.3571429 L19.6428571,9.42857143 L19.6428571,8.64285714 L18.8571429,8.64285714 L11.7857143,8.64285714 L11.7857143,5.5 L13.3571429,5.5 L14.1428571,5.5 L14.1428571,4.71428571 L14.1428571,0.785714286 L14.1428571,0 L13.3571429,0 L8.64285714,0 L7.85714286,0 Z M9.42857143,1.57142857 L12.5714286,1.57142857 L12.5714286,3.92857143 L9.42857143,3.92857143 L9.42857143,1.57142857 Z M1.57142857,14.9285714 L4.71428571,14.9285714 L4.71428571,17.2857143 L1.57142857,17.2857143 L1.57142857,14.9285714 Z M9.42857143,14.9285714 L12.5714286,14.9285714 L12.5714286,17.2857143 L9.42857143,17.2857143 L9.42857143,14.9285714 Z M17.2857143,14.9285714 L20.4285714,14.9285714 L20.4285714,17.2857143 L17.2857143,17.2857143 L17.2857143,14.9285714 Z" id="Shape"></path>
            </g>
        </g>
    </g>
</svg>
