<?xml version="1.0" encoding="UTF-8"?>
<svg width="22px" height="22px" viewBox="0 0 22 22" version="1.1" xmlns="http://www.w3.org/2000/svg" xmlns:xlink="http://www.w3.org/1999/xlink">
    <title>Multiple Inputs-595b40b85ba036ed117dc2b1</title>
    <g id="Symbols" stroke="none" stroke-width="1" fill="none" fill-rule="evenodd">
        <g id="Icons/icon-inputs" fill="#555555" fill-rule="nonzero">
            <g id="Multiple-Inputs-595b40b85ba036ed117dc2b1">
                <path d="M10.1538462,0 L10.1538462,0.846153846 L10.1538462,6.76923077 L6.76923077,6.76923077 L11,11 L15.2307692,6.76923077 L11.8461538,6.76923077 L11.8461538,0.846153846 L11.8461538,0 L10.1538462,0 Z M0,5.07692308 L0,6.76923077 L0.846153846,6.76923077 L2.53846154,6.76923077 C3.01479302,6.76923077 3.38461538,7.13905314 3.38461538,7.61538462 L3.38461538,11.8461538 L0,11.8461538 L4.23076923,16.0769231 L8.46153846,11.8461538 L5.07692308,11.8461538 L5.07692308,7.61538462 C5.07692308,6.2234084 3.93043775,5.07692308 2.53846154,5.07692308 L0.846153846,5.07692308 L0,5.07692308 Z M19.4615385,5.07692308 C18.0695629,5.07692308 16.9230769,6.2234084 16.9230769,7.61538462 L16.9230769,11.8461538 L13.5384615,11.8461538 L16.9230769,15.2307692 L17.7692308,16.0769231 L18.6153846,15.2307692 L22,11.8461538 L18.6153846,11.8461538 L18.6153846,7.61538462 C18.6153846,7.13905314 18.9852063,6.76923077 19.4615385,6.76923077 L21.1538462,6.76923077 L22,6.76923077 L22,5.07692308 L21.1538462,5.07692308 L19.4615385,5.07692308 Z M0,16.9230769 L0,19.4615385 C0,20.853514 1.14648532,22 2.53846154,22 L19.4615385,22 C20.853514,22 22,20.853514 22,19.4615385 L22,16.9230769 L20.3076923,16.9230769 L20.3076923,19.4615385 C20.3076923,19.9378706 19.9378706,20.3076923 19.4615385,20.3076923 L2.53846154,20.3076923 C2.06213006,20.3076923 1.69230769,19.9378706 1.69230769,19.4615385 L1.69230769,16.9230769 L0,16.9230769 Z" id="Shape"></path>
            </g>
        </g>
    </g>
</svg>
