<?xml version="1.0" encoding="UTF-8"?>
<svg width="22px" height="22px" viewBox="0 0 22 22" version="1.1" xmlns="http://www.w3.org/2000/svg" xmlns:xlink="http://www.w3.org/1999/xlink">
    <title>Logout Rounded Down-595b40b75ba036ed117d65b8</title>
    <g id="Symbols" stroke="none" stroke-width="1" fill="none" fill-rule="evenodd">
        <g id="Icons/icon-logout" fill="#555555" fill-rule="nonzero">
            <g id="Logout-Rounded-Down-595b40b75ba036ed117d65b8">
                <path d="M11.2104592,0.0140306122 C5.26911224,0.0140306122 0.43494898,4.81721429 0.43494898,10.7334184 C0.43494898,13.7438265 1.66122449,16.5315408 3.87244898,18.5905612 C4.23522449,18.9286429 4.79712245,18.9112449 5.13520408,18.5484694 C5.47238776,18.1856939 5.45633673,17.6237959 5.09311224,17.2857143 C3.25094898,15.5706122 2.23086735,13.2396224 2.23086735,10.7334184 C2.23086735,5.80766327 6.25911224,1.80994898 11.2104592,1.80994898 C16.1618061,1.80994898 20.190051,5.80766327 20.190051,10.7334184 C20.190051,13.2544388 19.173898,15.5968776 17.3137755,17.3137755 C16.9496531,17.6505102 16.9209184,18.2115102 17.2576531,18.5765306 C17.5939388,18.9406531 18.1698673,18.9689388 18.5344388,18.6326531 C20.7344388,16.6019184 21.9859694,13.7173367 21.9859694,10.7334184 C21.9859694,4.81721429 17.1522551,0.0140306122 11.2104592,0.0140306122 Z M11.2104592,9.89158163 C10.7147857,9.89158163 10.3125,10.2938673 10.3125,10.7895408 L10.3125,18.4783163 L8.7130102,16.8647959 C8.36235714,16.5141429 7.78687755,16.5141429 7.43622449,16.8647959 C7.26067347,17.039898 7.16964286,17.2662959 7.16964286,17.4961735 C7.16964286,17.726051 7.26067347,17.9660306 7.43622449,18.1415816 L10.5790816,21.2844388 C10.9297347,21.6350918 11.5052143,21.6350918 11.8558673,21.2844388 L14.9987245,18.1415816 C15.3493776,17.7909286 15.3493776,17.215 14.9987245,16.8647959 C14.6480714,16.5141429 14.0725918,16.5141429 13.7219388,16.8647959 L12.1084184,18.4783163 L12.1084184,10.7895408 C12.1084184,10.2938673 11.7061327,9.89158163 11.2104592,9.89158163 Z" id="Shape"></path>
            </g>
        </g>
    </g>
</svg>
