<?xml version="1.0" encoding="UTF-8"?>
<svg width="21px" height="22px" viewBox="0 0 21 22" version="1.1" xmlns="http://www.w3.org/2000/svg" xmlns:xlink="http://www.w3.org/1999/xlink">
    <title>Search-595b40b85ba036ed117db03b</title>
    <g id="Symbols" stroke="none" stroke-width="1" fill="none" fill-rule="evenodd">
        <g id="Icons/icon-magnifying-glass" transform="translate(-1.000000, 0.000000)" fill="#555555" fill-rule="nonzero">
            <g id="Search-595b40b85ba036ed117db03b" transform="translate(1.000000, 0.000000)">
                <path d="M8.31951466,0 C3.71931244,0 0,3.71931244 0,8.31951466 C0,12.9197169 3.71931244,16.6390293 8.31951466,16.6390293 C9.96096763,16.6390293 11.4816565,16.1572516 12.7698433,15.3391052 L18.7800809,21.3493428 L20.8599596,19.2694641 L14.9261881,13.3509858 C15.9931193,11.9522518 16.6390293,10.2175199 16.6390293,8.31951466 C16.6390293,3.71931244 12.9197169,0 8.31951466,0 Z M8.31951466,1.95753286 C11.8430738,1.95753286 14.6814965,4.79595551 14.6814965,8.31951466 C14.6814965,11.8430738 11.8430738,14.6814965 8.31951466,14.6814965 C4.79595551,14.6814965 1.95753286,11.8430738 1.95753286,8.31951466 C1.95753286,4.79595551 4.79595551,1.95753286 8.31951466,1.95753286 Z" id="Shape"></path>
            </g>
        </g>
    </g>
</svg>
