<?xml version="1.0" encoding="UTF-8"?>
<svg width="22px" height="22px" viewBox="0 0 22 22" version="1.1" xmlns="http://www.w3.org/2000/svg" xmlns:xlink="http://www.w3.org/1999/xlink">
    <title>megaphone</title>
    <g id="Symbols" stroke="none" stroke-width="1" fill="none" fill-rule="evenodd">
        <g id="Icons/icon-marketing" fill="#555555" fill-rule="nonzero">
            <g id="megaphone">
                <path d="M11.0917689,7.00437052 C11.1221833,7.22366932 11.3099721,7.38244622 11.5253267,7.38244622 C11.5453546,7.38244622 11.5656892,7.38104382 11.5861116,7.37823904 C12.8936215,7.19689243 14.1752311,6.88845418 15.3953546,6.46142629 C15.6238127,6.38149004 15.7441992,6.13147012 15.6642629,5.90301195 C15.5843267,5.67459761 15.3343944,5.55421116 15.1058486,5.63419124 C13.9404183,6.0420239 12.7157371,6.3367012 11.4656375,6.51007171 C11.2258725,6.54333466 11.058506,6.7646494 11.0917689,7.00437052 Z" id="Path"></path>
                <path d="M16.741255,5.88903187 C16.8018645,5.88903187 16.8634821,5.87636653 16.922251,5.84967729 C17.2576853,5.6972988 17.5903586,5.53348207 17.9110677,5.36269721 C18.1247131,5.24892829 18.2057012,4.9835259 18.0919323,4.76988048 C17.9781633,4.55623506 17.7128486,4.47533466 17.4991594,4.58905976 C17.1946215,4.75121116 16.8785578,4.90687649 16.5597769,5.05167331 C16.3394263,5.15176892 16.2419163,5.41156175 16.342012,5.63191235 C16.4154183,5.79349402 16.5746773,5.88903187 16.741255,5.88903187 Z" id="Path"></path>
                <path d="M20.4771793,0 C19.6546335,0 18.982757,0.65561753 18.9556295,1.47167729 C16.7630359,3.35583267 14.3756414,4.18556574 12.7431275,4.54966135 C10.9237012,4.95539044 9.61728685,4.88903984 9.60484064,4.88838247 C9.60054582,4.88811952 9.59629482,4.88838247 9.592,4.88829482 C9.58788048,4.88816335 9.58384861,4.88768127 9.57972908,4.88768127 L3.33045817,4.88768127 C3.08845817,4.88768127 2.89221116,5.08388446 2.89221116,5.32592829 L2.89221116,6.58501195 L2.89142231,6.58501195 C1.29712351,6.58496813 0,7.88204781 0,9.47643426 C0,11.0708207 1.29712351,12.3679004 2.89146614,12.3679004 L2.89225498,12.3679004 L2.89225498,13.6269841 C2.89225498,13.8690279 3.08850199,14.0652311 3.33050199,14.0652311 L4.0882749,14.0652311 L5.09216733,19.4251235 C5.33350996,20.7139641 6.4603745,21.6494024 7.77165339,21.6494024 L9.87865737,21.6494024 C10.0090359,21.6494024 10.1326215,21.5913785 10.2158446,21.4910637 C10.2991116,21.390749 10.3334263,21.2585737 10.3094104,21.1304741 L8.98612351,14.0652311 L9.57972908,14.0652311 C9.58411155,14.0652311 9.58831873,14.0647052 9.59265737,14.0645737 C9.59655777,14.0644861 9.60045817,14.064749 9.60435857,14.0645299 C9.61741833,14.0638287 10.9236574,13.9974343 12.7431275,14.4032072 C14.3756414,14.7673028 16.7630359,15.5970359 18.9556295,17.4811474 C18.982757,18.2972072 19.6546335,18.9528247 20.4771793,18.9528247 C21.3168606,18.9528247 22,18.2696853 22,17.430004 L22,1.52282072 C22,0.683139442 21.3168606,0 20.4771793,0 Z M2.89225498,11.4914064 L2.89146614,11.4914064 C1.78037849,11.4914064 0.876494024,10.5874781 0.876494024,9.47643426 C0.876494024,8.36539044 1.78037849,7.46146215 2.89146614,7.46146215 L2.89225498,7.46146215 L2.89225498,11.4914064 L2.89225498,11.4914064 Z M8.98954183,18.8446215 L7.88844622,18.8446215 C7.64644622,18.8446215 7.4501992,19.0408247 7.4501992,19.2828685 C7.4501992,19.5249124 7.64644622,19.7211155 7.88844622,19.7211155 L9.15370916,19.7211155 L9.3507012,20.7729084 L7.77165339,20.7729084 C6.88196813,20.7729084 6.11740239,20.138239 5.95367331,19.263761 L4.9799761,14.0652311 L8.09437849,14.0652311 L8.28365737,15.0756972 L7.14342629,15.0756972 C6.90142629,15.0756972 6.70517928,15.2719004 6.70517928,15.5139442 C6.70517928,15.755988 6.90142629,15.9521912 7.14342629,15.9521912 L8.4478247,15.9521912 L8.63662151,16.9601594 L7.4940239,16.9601594 C7.2520239,16.9601594 7.05577689,17.1563625 7.05577689,17.3984064 C7.05577689,17.6404502 7.2520239,17.8366534 7.4940239,17.8366534 L8.80074502,17.8366534 L8.98954183,18.8446215 Z M9.14148207,13.1887371 L3.76870518,13.1887371 L3.76870518,5.76408765 L9.14148207,5.76408765 L9.14148207,13.1887371 L9.14148207,13.1887371 Z M18.9544024,16.3486295 C16.7795139,14.6653665 14.5008486,13.8938327 12.9021673,13.5407371 C11.6144223,13.2562271 10.5806414,13.1935578 10.0179761,13.1843108 L10.0179761,5.76855777 C10.5806414,5.75931076 11.6144223,5.69659761 12.9021673,5.4121753 C14.5008486,5.05907968 16.7795139,4.28754582 18.9544024,2.60428287 L18.9544024,16.3486295 Z M21.123506,17.430004 C21.123506,17.7863865 20.8335618,18.0763307 20.4771793,18.0763307 C20.1207968,18.0763307 19.8308526,17.7863865 19.8308526,17.430004 L19.8308526,1.52282072 C19.8308526,1.16643825 20.1207968,0.876494024 20.4771793,0.876494024 C20.8335618,0.876494024 21.123506,1.16643825 21.123506,1.52282072 L21.123506,17.430004 Z" id="Shape"></path>
            </g>
        </g>
    </g>
</svg>
