<?xml version="1.0" encoding="UTF-8"?>
<svg width="22px" height="19px" viewBox="0 0 22 19" version="1.1" xmlns="http://www.w3.org/2000/svg" xmlns:xlink="http://www.w3.org/1999/xlink">
    <title>Group</title>
    <g id="Symbols" stroke="none" stroke-width="1" fill="none" fill-rule="evenodd">
        <g id="Icons/icon-speech-bubbles-2" transform="translate(0.000000, -1.000000)" fill="#555555" fill-rule="nonzero">
            <g id="Group" transform="translate(0.000000, 1.000000)">
                <g id="icons8-speech-bubble-(1)">
                    <path d="M1,0 C0.45,0 0,0.426315789 0,0.947368421 L0,6.63157895 L1.5,5.21052632 L6,5.21052632 C6.55,5.21052632 7,4.78421053 7,4.26315789 L7,0.947368421 C7,0.426315789 6.55,0 6,0 L1,0 Z M8,2.36842105 L8,4.26315789 C8,5.30810526 7.103,6.15789474 6,6.15789474 L3,6.15789474 L3,6.63157895 C3,7.15263158 3.45,7.57894737 4,7.57894737 L8.5,7.57894737 L10,9 L10,3.31578947 C10,2.79473684 9.55,2.36842105 9,2.36842105 L8,2.36842105 Z" id="Shape"></path>
                </g>
                <g id="icons8-speech-bubble-(1)" transform="translate(12.000000, 0.000000)">
                    <path d="M1,0 C0.45,0 0,0.426315789 0,0.947368421 L0,6.63157895 L1.5,5.21052632 L6,5.21052632 C6.55,5.21052632 7,4.78421053 7,4.26315789 L7,0.947368421 C7,0.426315789 6.55,0 6,0 L1,0 Z M8,2.36842105 L8,4.26315789 C8,5.30810526 7.103,6.15789474 6,6.15789474 L3,6.15789474 L3,6.63157895 C3,7.15263158 3.45,7.57894737 4,7.57894737 L8.5,7.57894737 L10,9 L10,3.31578947 C10,2.79473684 9.55,2.36842105 9,2.36842105 L8,2.36842105 Z" id="Shape"></path>
                </g>
                <g id="icons8-speech-bubble-(1)" transform="translate(12.000000, 10.000000)">
                    <path d="M1,0 C0.45,0 0,0.426315789 0,0.947368421 L0,6.63157895 L1.5,5.21052632 L6,5.21052632 C6.55,5.21052632 7,4.78421053 7,4.26315789 L7,0.947368421 C7,0.426315789 6.55,0 6,0 L1,0 Z M8,2.36842105 L8,4.26315789 C8,5.30810526 7.103,6.15789474 6,6.15789474 L3,6.15789474 L3,6.63157895 C3,7.15263158 3.45,7.57894737 4,7.57894737 L8.5,7.57894737 L10,9 L10,3.31578947 C10,2.79473684 9.55,2.36842105 9,2.36842105 L8,2.36842105 Z" id="Shape"></path>
                </g>
                <g id="icons8-speech-bubble-(1)" transform="translate(0.000000, 10.000000)">
                    <path d="M1,0 C0.45,0 0,0.426315789 0,0.947368421 L0,6.63157895 L1.5,5.21052632 L6,5.21052632 C6.55,5.21052632 7,4.78421053 7,4.26315789 L7,0.947368421 C7,0.426315789 6.55,0 6,0 L1,0 Z M8,2.36842105 L8,4.26315789 C8,5.30810526 7.103,6.15789474 6,6.15789474 L3,6.15789474 L3,6.63157895 C3,7.15263158 3.45,7.57894737 4,7.57894737 L8.5,7.57894737 L10,9 L10,3.31578947 C10,2.79473684 9.55,2.36842105 9,2.36842105 L8,2.36842105 Z" id="Shape"></path>
                </g>
            </g>
        </g>
    </g>
</svg>
