<?xml version="1.0" encoding="UTF-8"?>
<svg width="20px" height="19px" viewBox="0 0 20 19" version="1.1" xmlns="http://www.w3.org/2000/svg" xmlns:xlink="http://www.w3.org/1999/xlink">
    <title>Shape</title>
    <g id="Symbols" stroke="none" stroke-width="1" fill="none" fill-rule="evenodd">
        <g id="Icons/icon-speech-bubbles" transform="translate(-1.000000, -2.000000)" fill="#555555" fill-rule="nonzero">
            <g id="icons8-speech-bubble-(1)" transform="translate(1.000000, 2.000000)">
                <path d="M2,0 C0.9,0 0,0.9 0,2 L0,14 L3,11 L12,11 C13.1,11 14,10.1 14,9 L14,2 C14,0.9 13.1,0 12,0 L2,0 Z M16,5 L16,9 C16,11.206 14.206,13 12,13 L6,13 L6,14 C6,15.1 6.9,16 8,16 L17,16 L20,19 L20,7 C20,5.9 19.1,5 18,5 L16,5 Z" id="Shape"></path>
            </g>
        </g>
    </g>
</svg>
