<?xml version="1.0" encoding="UTF-8"?>
<svg width="40px" height="40px" viewBox="0 0 40 40" version="1.1" xmlns="http://www.w3.org/2000/svg" xmlns:xlink="http://www.w3.org/1999/xlink">
    <title>button-new-task</title>
    <g id="Navigation" stroke="none" stroke-width="1" fill="none" fill-rule="evenodd">
        <g id="Desktop-HD" transform="translate(-155.000000, -73.000000)">
            <g id="button-new-task" transform="translate(155.000000, 73.000000)">
                <rect id="Rectangle" stroke="#979797" fill="#F2F2F2" x="0.5" y="0.5" width="39" height="39" rx="8"></rect>
                <g id="Group" transform="translate(9.000000, 9.000000)" fill="#555555" fill-rule="nonzero">
                    <g id="Checked-Checkbox-595b40b75ba036ed117d7ae1" transform="translate(1.000000, 1.000000)">
                        <path d="M18,0 L2,0 C0.9,0 0,0.9 0,2 L0,18 C0,19.1 0.9,20 2,20 L18,20 C19.1,20 20,19.1 20,18 L20,2 C20,0.9 19.1,0 18,0 Z M7.3,15.7 L2.3,10.7 L3.7,9.3 L7.3,12.9 L16.3,4.2 L17.7,5.6 L7.3,15.7 Z" id="Shape"></path>
                    </g>
                </g>
            </g>
        </g>
    </g>
</svg>
