<?xml version="1.0" encoding="UTF-8"?>
<svg width="22px" height="18px" viewBox="0 0 22 18" version="1.1" xmlns="http://www.w3.org/2000/svg" xmlns:xlink="http://www.w3.org/1999/xlink">
    <title>Folder_open_alt_font_awesome</title>
    <g id="Symbols" stroke="none" stroke-width="1" fill="none" fill-rule="evenodd">
        <g id="Icons/icon-open-folder" transform="translate(0.000000, -2.000000)" fill="#555555" fill-rule="nonzero">
            <g id="Folder_open_alt_font_awesome" transform="translate(0.000000, 2.000000)">
                <g id="g3003" transform="translate(11.004249, 8.772635) scale(-1, 1) rotate(-180.000000) translate(-11.004249, -8.772635) translate(0.004249, 0.272635)">
                    <path d="M20.2962963,6.89458689 C20.2962963,7.16049383 20.0949668,7.29344729 19.6923077,7.29344729 L7.29344729,7.29344729 C6.98955366,7.29344729 6.66476733,7.21177588 6.31908832,7.04843305 C5.97340931,6.88509022 5.70180437,6.68566002 5.5042735,6.45014245 L2.15384615,2.31339031 C2.01709402,2.13105413 1.94871795,1.97910731 1.94871795,1.85754986 C1.94871795,1.59164292 2.15004748,1.45868946 2.55270655,1.45868946 L14.951567,1.45868946 C15.2554606,1.45868946 15.5821462,1.54226021 15.9316239,1.70940171 C16.2811016,1.87654321 16.5508072,2.07787274 16.7407407,2.31339031 L20.0911681,6.45014245 C20.2279202,6.61728395 20.2962963,6.7654321 20.2962963,6.89458689 Z M7.29344729,8.75213675 L16.045584,8.75213675 L16.045584,10.5754986 C16.045584,10.8793922 15.9392213,11.1377018 15.7264957,11.3504274 C15.5137702,11.5631529 15.2554606,11.6695157 14.951567,11.6695157 L8.38746439,11.6695157 C8.08357075,11.6695157 7.82526116,11.7758784 7.61253561,11.988604 C7.39981007,12.2013295 7.29344729,12.4596391 7.29344729,12.7635328 L7.29344729,13.4928775 C7.29344729,13.7967711 7.18708452,14.0550807 6.97435897,14.2678063 C6.76163343,14.4805318 6.50332384,14.5868946 6.1994302,14.5868946 L2.55270655,14.5868946 C2.24881292,14.5868946 1.99050332,14.4805318 1.77777778,14.2678063 C1.56505223,14.0550807 1.45868946,13.7967711 1.45868946,13.4928775 L1.45868946,3.77207977 L4.37606838,7.36182336 C4.71035138,7.76448243 5.15099715,8.0968661 5.6980057,8.35897436 C6.24501425,8.62108262 6.77682811,8.75213675 7.29344729,8.75213675 Z M21.7549858,6.89458689 C21.7549858,6.42355176 21.5802469,5.9677113 21.2307692,5.52706553 L17.8689459,1.39031339 C17.5422602,0.987654321 17.1016144,0.655270655 16.5470085,0.393162393 C15.9924027,0.131054131 15.4605888,0 14.951567,0 L2.55270655,0 C1.85375119,0 1.25356125,0.250712251 0.752136752,0.752136752 C0.250712251,1.25356125 0,1.85375119 0,2.55270655 L0,13.4928775 C0,14.1918329 0.250712251,14.7920228 0.752136752,15.2934473 C1.25356125,15.7948718 1.85375119,16.045584 2.55270655,16.045584 L6.1994302,16.045584 C6.89838557,16.045584 7.4985755,15.7948718 8,15.2934473 C8.5014245,14.7920228 8.75213675,14.1918329 8.75213675,13.4928775 L8.75213675,13.1282051 L14.951567,13.1282051 C15.6505223,13.1282051 16.2507123,12.8774929 16.7521368,12.3760684 C17.2535613,11.8746439 17.5042735,11.2744539 17.5042735,10.5754986 L17.5042735,8.75213675 L19.6923077,8.75213675 C20.1025641,8.75213675 20.4786325,8.65906933 20.8205128,8.47293447 C21.1623932,8.28679962 21.4169041,8.01899335 21.5840456,7.66951567 C21.6980057,7.42640076 21.7549858,7.16809117 21.7549858,6.89458689 Z" id="path3005"></path>
                </g>
            </g>
        </g>
    </g>
</svg>
