<?xml version="1.0" encoding="UTF-8"?>
<svg width="22px" height="22px" viewBox="0 0 22 22" version="1.1" xmlns="http://www.w3.org/2000/svg" xmlns:xlink="http://www.w3.org/1999/xlink">
    <title>iconfinder_Edit-01_1976055</title>
    <g id="Symbols" stroke="none" stroke-width="1" fill="none" fill-rule="evenodd">
        <g id="Icons/icon-assign" fill="#555555" fill-rule="nonzero">
            <g id="iconfinder_Edit-01_1976055">
                <path d="M19.3677,18.4206 C19.3677,19.3897 18.5801,20.207 17.611,20.207 L3.5541,20.207 C2.585,20.207 1.7974,19.3897 1.7974,18.4206 L1.7974,4.3637 C1.7974,3.3946 2.585,2.6356 3.5541,2.6356 L11.7535,2.6356 L11.7535,1.4652 L3.5541,1.4652 C1.9393,1.4652 0.6259,2.75 0.6259,4.3648 L0.6259,18.4206 C0.6259,20.0354 1.9393,21.3774 3.5541,21.3774 L17.6099,21.3774 C19.2247,21.3774 20.5381,20.0343 20.5381,18.4206 L20.5381,10.2498 L19.3666,10.2498 L19.3666,18.4206 L19.3677,18.4206 Z" id="Path"></path>
                <path d="M20.6877,1.287 C19.8033,0.4015 18.26,0.4015 17.3745,1.287 L9.5172,9.1443 C9.4424,9.2191 9.3885,9.3137 9.3632,9.416 L8.536,12.7281 C8.4865,12.9272 8.5448,13.1384 8.69,13.2847 C8.8011,13.3958 8.9507,13.4563 9.1036,13.4563 C9.1509,13.4563 9.1982,13.4508 9.2455,13.4387 L12.5587,12.6104 C12.6621,12.5851 12.7556,12.5312 12.8304,12.4564 L20.6877,4.5991 C21.1299,4.1569 21.3741,3.5684 21.3741,2.9425 C21.3741,2.3166 21.131,1.7292 20.6877,1.287 Z M12.1176,11.5137 L9.9088,12.0659 L10.461,9.8571 L16.9609,3.3572 L18.6175,5.0138 L12.1176,11.5137 Z M19.8594,3.7708 L19.4458,4.1844 L17.7892,2.5278 L18.2028,2.1142 C18.645,1.672 19.4172,1.672 19.8594,2.1142 C20.0805,2.3353 20.2026,2.629 20.2026,2.9425 C20.2026,3.256 20.0805,3.5497 19.8594,3.7708 Z" id="Shape"></path>
            </g>
        </g>
    </g>
</svg>
