<?xml version="1.0" encoding="UTF-8"?>
<svg width="19px" height="22px" viewBox="0 0 19 22" version="1.1" xmlns="http://www.w3.org/2000/svg" xmlns:xlink="http://www.w3.org/1999/xlink">
    <title>97d5d7d59259e52a271adba2b55fb0b8</title>
    <g id="Symbols" stroke="none" stroke-width="1" fill="none" fill-rule="evenodd">
        <g id="Icons/icon-thinking-brain" transform="translate(-2.000000, 0.000000)" fill="#555555" fill-rule="nonzero">
            <g id="97d5d7d59259e52a271adba2b55fb0b8" transform="translate(2.000000, 0.000000)">
                <g id="Group" transform="translate(9.504490, 11.000000) scale(-1, 1) rotate(-180.000000) translate(-9.504490, -11.000000) translate(0.004490, -0.000000)">
                    <path d="M9.19353061,21.9737347 C7.46002041,21.8031224 5.81428571,21.2077755 4.58430612,20.3017347 C4.0897551,19.9385102 3.40236735,19.2336122 3.06989796,18.743551 C2.91679592,18.5204082 2.68467347,18.1176735 2.55783673,17.8462653 C2.18585714,17.071551 2.05879592,16.5767755 1.85742857,15.1016531 C1.64304082,13.5695102 1.17453061,12.3045102 0.570428571,11.6218367 C0.0756530612,11.0657755 -0.0819387755,10.6542857 0.0406326531,10.2207959 C0.17644898,9.73926531 0.548428571,9.46785714 1.1175102,9.44159184 C1.29261224,9.43283673 1.41518367,9.40657143 1.41069388,9.38030612 C1.34514286,9.04334694 1.30136735,8.56608163 1.32763265,8.4392449 C1.34514286,8.34742857 1.42393878,8.18983673 1.50273469,8.08477551 C1.63406122,7.90967347 1.64708163,7.87038776 1.62530612,7.66902041 C1.59455102,7.34957143 1.64281633,7.16571429 1.81342857,6.93808163 C1.95777551,6.74995918 1.96653061,6.72795918 1.99302041,6.25091837 C2.03230612,5.50246939 2.14612245,5.20479592 2.55334694,4.78006122 C2.83777551,4.48687755 3.2142449,4.268 3.652,4.15844898 C4.0634898,4.05338776 4.33489796,4.04912245 4.96953061,4.13667347 C5.23218367,4.17595918 5.50785714,4.19346939 5.58665306,4.18044898 C5.69620408,4.16293878 5.81428571,4.05787755 6.09871429,3.73842857 C6.72459184,3.03802041 6.82538776,2.78412245 6.82538776,1.88257143 C6.82987755,0.910755102 6.9784898,0.241102041 7.23687755,0.0835102041 C7.31118367,0.0397346939 7.41197959,0.000224489796 7.46002041,0.000224489796 C7.60010204,0.000224489796 15.2383673,2.27206122 15.3521837,2.34636735 C15.5230204,2.46018367 15.5447959,2.5915102 15.488,3.23938776 C15.4047143,4.18920408 15.4967551,5.27483673 15.7374082,6.25540816 C16.0218367,7.41108163 16.4508367,8.37840816 17.4271429,10.0679184 C18.2981633,11.582551 18.5040204,12.0333265 18.6483673,12.76 C18.7929388,13.4954286 18.6833878,15.4783469 18.4207347,16.7871224 C18.1098163,18.3410408 17.072449,19.6718163 15.4047143,20.6521633 C14.3848571,21.2517755 13.0935918,21.6895306 11.7497959,21.890898 C11.088898,21.9912449 9.79740816,22.0307551 9.19353061,21.9737347 Z M11.5964694,20.9846327 C13.518102,20.7352245 15.124551,20.0215714 16.2189388,18.9316735 C16.8843265,18.2707755 17.2607959,17.6316531 17.4664286,16.8131633 C17.6065102,16.2485714 17.7771224,14.8652653 17.7991224,14.068551 C17.8384082,12.8385714 17.7115714,12.4270816 16.8010408,10.846898 C15.719898,8.96904082 15.4747551,8.4744898 15.1288163,7.45889796 C14.7130612,6.23767347 14.5597347,5.34465306 14.5509796,4.00534694 L14.5422245,3.04228571 L11.1804898,2.04420408 C9.33316327,1.49712245 7.8144898,1.05487755 7.8012449,1.06350486 C7.7924898,1.07238776 7.77071429,1.45312245 7.74871429,1.90838776 C7.71795918,2.63057143 7.69618367,2.77940816 7.59561224,3.08583673 C7.44677551,3.51910204 7.29793878,3.76873469 6.89969388,4.23702041 C6.47069388,4.74481633 6.21253061,4.96795918 5.96289796,5.038 C5.709,5.11230612 5.24071429,5.11230612 4.66736735,5.0335102 C3.83563265,4.92395918 3.34534694,5.06426531 3.08718367,5.48428571 C2.96461224,5.68116327 2.95136735,5.74244898 2.92532653,6.2502449 C2.88581633,6.98993878 2.85977551,7.1082449 2.67569388,7.34463265 L2.52259184,7.546 L2.64089796,7.75185714 C2.70218367,7.86567347 2.75471429,8.01877551 2.75471429,8.08881633 C2.75471429,8.25965306 2.57085714,8.47830612 2.3914898,8.52657143 C2.21638776,8.57034694 2.21638776,8.60985714 2.36073469,9.38008163 C2.46579592,9.93165306 2.46579592,9.94040816 2.387,10.0892449 C2.27318367,10.2948776 2.05430612,10.3694082 1.44144898,10.4086939 C0.806816327,10.4482041 0.789306122,10.4787347 1.19630612,10.9295102 C1.5377551,11.3109184 1.69085714,11.5297959 1.88773469,11.9280408 C2.3297551,12.8123061 2.65369388,13.9897551 2.84204082,15.4298571 C2.97336735,16.4146939 3.15273469,17.0450612 3.49867347,17.7279592 C3.82261224,18.3625918 4.4572449,19.1025102 5.08761224,19.5838163 C6.67206122,20.7832653 9.10597959,21.3083469 11.5964694,20.9846327 Z" id="Shape"></path>
                    <path d="M10.5766122,19.3474286 C10.2396531,19.2861429 10.1476122,19.1593061 10.0908163,18.6690204 C10.0207755,18.1131837 10.0337959,18.139449 9.80638776,18.0431429 L9.59626531,17.9555918 L9.31610204,18.1787347 C8.64195918,18.7040408 8.56765306,18.6952857 7.8935102,18.0123878 C7.28940816,17.4040204 7.27189796,17.281449 7.70538776,16.7211224 C7.97230612,16.3709184 7.97679592,16.3666531 7.92853061,16.2045714 C7.8452449,15.9419184 7.82795918,15.928898 7.36393878,15.8676122 C6.611,15.7713061 6.58473469,15.7362857 6.58473469,14.7952245 C6.58473469,13.8584286 6.6285102,13.8016327 7.41646939,13.7008367 C7.63108163,13.6745714 7.82346939,13.6307959 7.83671429,13.6045306 C7.85422449,13.5825306 7.8892449,13.4819592 7.91977551,13.3901429 C7.97657143,13.2237959 7.97657143,13.2195306 7.73591837,12.9043469 C7.33318367,12.3702857 7.32016327,12.3002449 7.52579592,11.9850612 C7.68765306,11.7444082 8.25246939,11.197102 8.44934694,11.0920408 C8.66822449,10.9824898 8.83883673,11.0350204 9.23281633,11.341449 L9.5875102,11.6128571 L9.75385714,11.5558367 C9.84567347,11.5250816 9.94646939,11.4857959 9.97273469,11.4727755 C9.999,11.4552653 10.0427755,11.2626531 10.0690408,11.0482653 C10.1608571,10.2690612 10.2221429,10.2210204 11.1589388,10.2210204 C12.0912449,10.2210204 12.1307551,10.2517755 12.2358163,10.9957347 C12.2708367,11.2408776 12.3233673,11.4597551 12.353898,11.4772653 C12.3801633,11.4947755 12.4809592,11.5340612 12.5685102,11.5648163 C12.7303673,11.6128571 12.7348571,11.6085918 13.0850612,11.341449 C13.4790408,11.0350204 13.6496531,10.9824898 13.8730204,11.0963061 C14.0523878,11.1881224 14.7047551,11.8317347 14.8315918,12.0373673 C14.993449,12.3042857 14.9671837,12.3918367 14.5734286,12.9128776 L14.3237959,13.2410816 L14.4113469,13.4467143 L14.4946327,13.6480816 L14.871102,13.7006122 C15.4006735,13.7661633 15.4314286,13.7749184 15.5582653,13.8887347 C15.707102,14.0200612 15.7726531,14.3832857 15.7421224,14.9698776 C15.7201224,15.4644286 15.6545714,15.6702857 15.4837347,15.762102 C15.4356939,15.7883673 15.1948163,15.8364082 14.9584286,15.8671633 C14.7177755,15.8979184 14.5164082,15.9327143 14.5076531,15.9416939 C14.498898,15.950449 14.4508571,16.0422653 14.4025918,16.1473265 L14.3195306,16.3399388 L14.5996939,16.7076531 C14.8928776,17.0971429 14.949898,17.2197143 14.9061224,17.3993061 C14.8448367,17.6399592 14.0043469,18.480449 13.7594286,18.5417347 C13.5885918,18.5855102 13.4705102,18.5329796 13.0765306,18.2353061 L12.7038776,17.9555918 L12.5112653,18.0388776 C12.4062041,18.0871429 12.3143878,18.1306939 12.309898,18.139449 C12.3011429,18.1437143 12.2706122,18.3495714 12.2355918,18.5902245 C12.165551,19.1022857 12.1260408,19.1898367 11.9379184,19.2861429 C11.7760612,19.3694286 10.9093061,19.4087143 10.5766122,19.3474286 Z M11.3383061,18.2750408 C11.3558163,18.1787347 11.3820816,17.9861224 11.3995918,17.8460408 C11.4346122,17.5265918 11.5659388,17.3645102 11.8416122,17.2944694 C11.9511633,17.2637143 12.1785714,17.1763878 12.3449184,17.093102 C12.7606735,16.8787143 12.8352041,16.8874694 13.2642041,17.2069184 C13.6361837,17.4825918 13.6932041,17.4958367 13.8027551,17.325 C13.8332857,17.2682041 13.7852449,17.1761633 13.5751224,16.896 C13.2511837,16.4714898 13.2424286,16.401449 13.4568163,15.9812041 C13.540102,15.8148571 13.6276531,15.5872245 13.6581837,15.477898 C13.7327143,15.1714694 13.8727959,15.0796531 14.3410816,15.0138776 C14.5512041,14.9876122 14.7525714,14.9570816 14.783102,14.948102 C14.839898,14.9263265 14.8574082,14.6811837 14.8006122,14.6461633 C14.7788367,14.6329184 14.5817347,14.6023878 14.3585918,14.5718571 C13.8727959,14.5105714 13.7369796,14.4187551 13.6581837,14.1123265 C13.6276531,14.003 13.540102,13.7753673 13.4568163,13.6090204 C13.2466939,13.1932653 13.255449,13.1187347 13.5663673,12.6984898 C13.7107143,12.5016122 13.8290204,12.3265102 13.8290204,12.309 C13.8290204,12.2872245 13.7852449,12.2302041 13.7327143,12.1776735 L13.6321429,12.0858571 L13.3082041,12.3440204 C12.8967143,12.6722245 12.7566327,12.7072449 12.4502041,12.5453878 C12.3321224,12.4798367 12.0869796,12.3747755 11.9073878,12.309 C11.7060204,12.2344694 11.5529184,12.1514082 11.5046531,12.0813673 C11.4563878,12.0158163 11.4040816,11.8099592 11.3688367,11.5560612 L11.3120408,11.1400816 L11.1587143,11.1400816 L11.0056122,11.1400816 L10.9400612,11.5865918 C10.8920204,11.8797755 10.8437551,12.0636327 10.7912245,12.1206531 C10.747449,12.1686939 10.581102,12.2519796 10.4192449,12.3045102 C10.2616531,12.3570408 10.021,12.4578367 9.88967347,12.5278776 C9.56573469,12.7029796 9.44316327,12.6767143 9.01416327,12.3482857 L8.67720408,12.0856327 L8.58089796,12.1862041 C8.53263265,12.2387347 8.48885714,12.3000204 8.48885714,12.3175306 C8.48885714,12.3350408 8.60716327,12.5101429 8.7515102,12.7027551 C9.05344898,13.1054898 9.06669388,13.1797959 8.88710204,13.5257347 C8.82155102,13.6570612 8.7207551,13.8977143 8.66822449,14.0597959 C8.53689796,14.4492857 8.45810204,14.5063061 7.95479592,14.5718571 C7.73165306,14.6026122 7.53028571,14.641898 7.51277551,14.6594082 C7.491,14.6811837 7.48202041,14.7512245 7.491,14.8212653 C7.50402041,14.9438367 7.5085102,14.948102 7.92,15.0051224 C8.17389796,15.0401429 8.37953061,15.0926735 8.44530612,15.1409388 C8.51534694,15.1934694 8.60289796,15.3510612 8.69044898,15.587449 C8.7647551,15.7888163 8.86981633,16.0294694 8.92683673,16.1215102 C9.06691837,16.357898 9.02740816,16.5197551 8.72546939,16.9182245 C8.52859184,17.1808776 8.48032653,17.2684286 8.51534694,17.3252245 C8.62467347,17.4958367 8.68169388,17.4828163 9.05367347,17.2071429 C9.48267347,16.8876939 9.55697959,16.8789388 9.97295918,17.0933265 C10.1393061,17.1766122 10.3669388,17.2639388 10.4762653,17.2946939 C10.7826939,17.369 10.8702449,17.5048163 10.9402857,17.995102 C10.9708163,18.2227347 11.0015714,18.424102 11.0145918,18.4416122 C11.0276122,18.4591224 11.0978776,18.4723673 11.1721837,18.4636122 C11.2945306,18.4501429 11.3120408,18.4326327 11.3383061,18.2750408 Z" id="Shape"></path>
                    <path d="M10.559102,16.6773469 C9.65306122,16.3534082 9.04020408,15.3860816 9.18904082,14.5238163 C9.37289796,13.4601837 10.4410204,12.6547143 11.4346122,12.825551 C12.0649796,12.9348776 12.6733469,13.4033878 12.958,13.9899796 C13.0805714,14.2481429 13.1068367,14.3532041 13.1198571,14.6903878 C13.1461224,15.29 12.9842653,15.7147347 12.5640204,16.148 C12.3146122,16.401898 12.0957347,16.5462449 11.758551,16.6688163 C11.4301224,16.7911633 10.8917959,16.7956531 10.559102,16.6773469 Z M11.6402449,15.7537959 C11.902898,15.6357143 11.9859592,15.5569184 12.1042653,15.2985306 C12.2881224,14.9133061 12.2313265,14.3792449 11.9861837,14.0773061 C11.7935714,13.8496735 11.5396735,13.7446122 11.1676939,13.7446122 C10.4717755,13.7446122 10.1128163,14.1035714 10.1083265,14.7907347 C10.1083265,15.2985306 10.3227143,15.6399796 10.7299388,15.7888163 C10.9663265,15.8718776 11.417102,15.8543673 11.6402449,15.7537959 Z" id="Shape"></path>
                </g>
            </g>
        </g>
    </g>
</svg>
