<?xml version="1.0" encoding="UTF-8"?>
<svg width="22px" height="19px" viewBox="0 0 22 19" version="1.1" xmlns="http://www.w3.org/2000/svg" xmlns:xlink="http://www.w3.org/1999/xlink">
    <title>Hand Right-595b40b65ba036ed117d1d6e</title>
    <g id="Symbols" stroke="none" stroke-width="1" fill="none" fill-rule="evenodd">
        <g id="Icons/icon-hand-right" transform="translate(0.000000, -1.000000)" fill="#555555" fill-rule="nonzero">
            <g id="Hand-Right-595b40b65ba036ed117d1d6e" transform="translate(0.000000, 1.000000)">
                <path d="M9.96875,0 L9.72321429,0.220982143 L4.39508929,5.5 L0.785714286,5.5 L0,5.5 L0,6.28571429 L0,17.2857143 L0,18.0714286 L0.785714286,18.0714286 L13.234375,18.0714286 C14.3413592,18.0714286 15.3100451,17.2873847 15.5424107,16.2053571 L16.84375,10.2142857 L19.6428571,10.2142857 C20.9353336,10.2142857 22,9.14961929 22,7.85714286 C22,6.56466643 20.9353336,5.5 19.6428571,5.5 L11.1964286,5.5 L11.34375,4.91071429 C11.5033482,4.78789269 11.6042206,4.73473904 11.8348214,4.41964286 C12.2037826,3.91548897 12.5714286,3.13697481 12.5714286,2.08705357 C12.5726629,0.966451986 11.5577951,0 10.2879464,0 L9.96875,0 Z M10.5334821,1.64508929 C10.864491,1.70928764 11.0002664,1.84535191 11,2.08705357 C11,2.79634661 10.7856281,3.23372531 10.5825893,3.51116071 C10.3795505,3.78859611 10.2388393,3.85491071 10.2388393,3.85491071 L9.96875,4.00223214 L9.87053571,4.32142857 L9.40401786,6.08928571 L9.15848214,7.07142857 L10.1651786,7.07142857 L19.6428571,7.07142857 C20.0868093,7.07142857 20.4285714,7.41319071 20.4285714,7.85714286 C20.4285714,8.301095 20.0868093,8.64285714 19.6428571,8.64285714 L16.2053571,8.64285714 L15.5669643,8.64285714 L15.4196429,9.25669643 L14.0200893,15.8861607 C13.941312,16.2529903 13.6092479,16.5 13.234375,16.5 L5.5,16.5 L5.5,6.60491071 L10.5334821,1.64508929 Z M1.57142857,7.07142857 L3.92857143,7.07142857 L3.92857143,16.5 L1.57142857,16.5 L1.57142857,7.07142857 Z" id="Shape"></path>
            </g>
        </g>
    </g>
</svg>
