<?xml version="1.0" encoding="UTF-8"?>
<svg width="22px" height="22px" viewBox="0 0 22 22" version="1.1" xmlns="http://www.w3.org/2000/svg" xmlns:xlink="http://www.w3.org/1999/xlink">
    <title>users-linked</title>
    <g id="Symbols" stroke="none" stroke-width="1" fill="none" fill-rule="evenodd">
        <g id="Icons/icon-users-linked" fill="#555555" fill-rule="nonzero">
            <g id="users-linked">
                <path d="M12.1359315,5.09076773 C12.8185232,4.61913936 13.2782103,3.74537897 13.2782103,2.7468802 C13.2782103,1.39514425 13.0046895,0.0132860636 10.9760636,0.0132860636 C8.94743765,0.0132860636 8.67391687,1.39514425 8.67391687,2.7468802 C8.67391687,3.74537897 9.13360391,4.61913936 9.8161956,5.09076773 C8.30594132,5.54389242 7.21072861,6.85609291 7.21072861,8.40093399 C7.21072861,9.19734474 7.61635697,9.76288998 8.41626406,10.0818093 C9.00181907,10.3152567 9.81522738,10.4239658 10.9760098,10.4239658 C12.136846,10.4239658 12.9502005,10.3152567 13.5357555,10.0818093 C14.3356626,9.76288998 14.741291,9.19739853 14.741291,8.40093399 C14.7413985,6.8561467 13.6461858,5.54389242 12.1359315,5.09076773 Z" id="Path"></path>
                <path d="M4.92525672,15.313291 C5.60774083,14.8416088 6.06742787,13.9678484 6.06742787,12.9694034 C6.06742787,11.6176675 5.79390709,10.2358093 3.76522738,10.2358093 C1.73654768,10.2358093 1.46302689,11.6176675 1.46302689,12.9694034 C1.46302689,13.9679022 1.92271394,14.8416088 2.60519804,15.313291 C1.09515892,15.7664156 0,17.0786161 0,18.6234034 C0,19.4198142 0.405628362,19.9853594 1.20553545,20.3042787 C1.79109046,20.5377262 2.60449878,20.6464352 3.76528117,20.6464352 C4.92606357,20.6464352 5.73947188,20.5377262 6.32502689,20.3042787 C7.12493399,19.9853056 7.53056235,19.4198142 7.53056235,18.6234034 C7.53056235,17.0786161 6.43540342,15.7664156 4.92525672,15.313291 Z" id="Path"></path>
                <path d="M19.3469291,15.313291 C20.029467,14.8416088 20.4891002,13.9678484 20.4891002,12.9694034 C20.4891002,11.6176675 20.2155795,10.2358093 18.1868998,10.2358093 C16.15822,10.2358093 15.8846993,11.6176675 15.8846993,12.9694034 C15.8846993,13.9679022 16.3443863,14.8416088 17.0268704,15.313291 C15.5167775,15.7664156 14.4215648,17.0786161 14.4215648,18.6234034 C14.4215648,19.4198142 14.8271932,19.9853594 15.6271002,20.3042787 C16.2126553,20.5377262 17.0260636,20.6464352 18.186846,20.6464352 C19.3476284,20.6464352 20.1610367,20.5377262 20.7465917,20.3042787 C21.5464988,19.9853594 21.9521271,19.419868 21.9521271,18.6234034 C21.9521271,17.0786161 20.857022,15.7664156 19.3469291,15.313291 Z" id="Path"></path>
                <path d="M13.5198875,20.4546748 C13.493423,20.3884597 13.4417311,20.335423 13.3761614,20.307291 C13.3106455,20.2791589 13.2366308,20.2781907 13.1703619,20.304709 C12.5920685,20.5356822 11.8743521,20.6479951 10.9761174,20.6479951 C10.0778826,20.6479951 9.36016626,20.5357359 8.78187286,20.304709 C8.71571149,20.2782445 8.64164303,20.2792127 8.57607335,20.307291 C8.51050367,20.335423 8.45881174,20.3884597 8.43234719,20.4546748 L8.23284108,20.9541663 C8.17776039,21.0920831 8.24494377,21.2485575 8.38280685,21.3036381 C9.09030318,21.5863032 9.93862103,21.7237359 10.9761174,21.7237359 C12.0136137,21.7237359 12.8619315,21.5863032 13.5694279,21.3036381 C13.7073447,21.2485575 13.7745281,21.0920293 13.7193936,20.9541663 L13.5198875,20.4546748 Z" id="Path"></path>
                <path d="M3.04638142,8.87035697 L3.54070905,9.08239609 C3.57529584,9.09718826 3.61128117,9.10423472 3.64667482,9.10423472 C3.75091932,9.10423472 3.85021516,9.04318337 3.89394621,8.94125183 C4.13944254,8.36898289 4.56755501,7.78208313 5.20265037,7.14698778 C5.83796088,6.51183863 6.42486064,6.08372616 6.99696822,5.83822983 C7.0625379,5.8100978 7.11422983,5.75711491 7.14069438,5.69084597 C7.16710513,5.62463081 7.1662445,5.55056235 7.13805868,5.48499267 L6.92596577,4.99071883 C6.86738875,4.8541467 6.70919315,4.79105134 6.5727824,4.84962836 C5.87260147,5.14999022 5.17564792,5.65265526 4.44206357,6.38623961 C3.70837164,7.11987775 3.20576039,7.81688509 2.90539853,8.5171198 C2.84671394,8.65363814 2.90991687,8.81177995 3.04638142,8.87035697 Z" id="Path"></path>
                <path d="M14.9552665,5.83822983 C15.5274279,6.08372616 16.1143276,6.51183863 16.7495844,7.14698778 C17.3846797,7.78208313 17.8127922,8.36903667 18.0582885,8.94125183 C18.1020196,9.04318337 18.2012616,9.10423472 18.3055599,9.10423472 C18.3409535,9.10423472 18.3769389,9.09718826 18.4115257,9.08239609 L18.9057995,8.87035697 C19.0422641,8.81177995 19.105467,8.65363814 19.04689,8.51717359 C18.7465281,7.81693888 18.2438631,7.11987775 17.5102249,6.3862934 C16.7765868,5.65265526 16.0796333,5.15004401 15.3795061,4.84968215 C15.2430954,4.79110513 15.0848998,4.85420049 15.0263227,4.99077262 L14.8142298,5.48504645 C14.7860978,5.55061614 14.7851834,5.62463081 14.8115941,5.69089976 C14.8380587,5.75711491 14.8897506,5.8100978 14.9552665,5.83822983 Z" id="Path"></path>
            </g>
        </g>
    </g>
</svg>
