<?xml version="1.0" encoding="UTF-8"?>
<svg width="19px" height="22px" viewBox="0 0 19 22" version="1.1" xmlns="http://www.w3.org/2000/svg" xmlns:xlink="http://www.w3.org/1999/xlink">
    <title>Resume Template-595b40b85ba036ed117dc3f0</title>
    <g id="Symbols" stroke="none" stroke-width="1" fill="none" fill-rule="evenodd">
        <g id="Icons/icon-template" transform="translate(-2.000000, 0.000000)" fill="#555555" fill-rule="nonzero">
            <g id="Resume-Template-595b40b85ba036ed117dc3f0" transform="translate(2.000000, 0.000000)">
                <path d="M2.75,0 C1.24202577,0 0,1.24202577 0,2.75 L0,19.25 C0,20.7579735 1.24202577,22 2.75,22 L15.5833333,22 C17.0913068,22 18.3333333,20.7579735 18.3333333,19.25 L18.3333333,2.75 C18.3333333,1.24202577 17.0913068,0 15.5833333,0 L2.75,0 Z M2.75,1.83333333 L15.5833333,1.83333333 C16.0993598,1.83333333 16.5,2.23397423 16.5,2.75 L16.5,19.25 C16.5,19.7660265 16.0993598,20.1666667 15.5833333,20.1666667 L2.75,20.1666667 C2.23397423,20.1666667 1.83333333,19.7660265 1.83333333,19.25 L1.83333333,2.75 C1.83333333,2.23397423 2.23397423,1.83333333 2.75,1.83333333 Z M3.66666667,3.66666667 L3.66666667,5.5 L14.6666667,5.5 L14.6666667,3.66666667 L3.66666667,3.66666667 Z M3.66666667,7.33333333 L3.66666667,9.16666667 L14.6666667,9.16666667 L14.6666667,7.33333333 L3.66666667,7.33333333 Z M4.58333333,11 C4.07709328,11 3.66666667,11.4104266 3.66666667,11.9166667 L3.66666667,17.4166667 C3.66666667,17.9229067 4.07709328,18.3333333 4.58333333,18.3333333 L13.75,18.3333333 C14.2562401,18.3333333 14.6666667,17.9229067 14.6666667,17.4166667 L14.6666667,11.9166667 C14.6666667,11.4104266 14.2562401,11 13.75,11 L4.58333333,11 Z M5.5,12.8333333 L12.8333333,12.8333333 L12.8333333,16.5 L5.5,16.5 L5.5,12.8333333 Z" id="Shape"></path>
            </g>
        </g>
    </g>
</svg>
