<?xml version="1.0" encoding="UTF-8"?>
<svg width="22px" height="22px" viewBox="0 0 22 22" version="1.1" xmlns="http://www.w3.org/2000/svg" xmlns:xlink="http://www.w3.org/1999/xlink">
    <title>shapes-svgrepo-com</title>
    <g id="Symbols" stroke="none" stroke-width="1" fill="none" fill-rule="evenodd">
        <g id="Icons/icon-unit-types" fill="#555555" fill-rule="nonzero">
            <g id="shapes-svgrepo-com">
                <path d="M21.2142734,0 L0.785726563,0 C0.351785156,0 0,0.351785156 0,0.785726563 L0,21.2143164 C0,21.6482148 0.351785156,22 0.785726563,22 L21.2143164,22 C21.6482578,22 22.000043,21.6482148 22.000043,21.2142734 L22.000043,0.785726563 C22.000043,0.351785156 21.6482148,0 21.2142734,0 Z M20.4285898,20.4285898 L1.57141016,20.4285898 L1.57141016,1.57141016 L20.4285898,1.57141016 L20.4285898,20.4285898 L20.4285898,20.4285898 Z" id="Shape"></path>
                <path d="M9.14383594,3.48192969 L4.71655078,3.48192969 C4.28260937,3.48192969 3.93082422,3.83371484 3.93082422,4.26765625 L3.93082422,8.69494141 C3.93082422,9.12892578 4.28260937,9.48071094 4.71655078,9.48071094 L9.14383594,9.48071094 C9.57777734,9.48071094 9.9295625,9.12892578 9.9295625,8.69498438 L9.9295625,4.26761328 C9.9295625,3.83371484 9.57773437,3.48192969 9.14383594,3.48192969 Z" id="Path"></path>
                <path d="M18.3063633,8.30212109 L15.7502383,3.87483594 C15.4484688,3.35216406 14.6916602,3.35121875 14.389375,3.87483594 L11.83325,8.30212109 C11.5314375,8.82487891 11.9093047,9.48071094 12.5136602,9.48071094 L17.6259531,9.48071094 C18.2296211,9.48071094 18.6086055,8.82556641 18.3063633,8.30212109 Z" id="Path"></path>
                <path d="M6.93021484,11.9659375 C5.12380859,11.9659375 3.65410547,13.4355547 3.65410547,15.2419609 C3.65410547,17.0484102 5.12376562,18.5180703 6.93021484,18.5180703 C8.73666406,18.5180703 10.2062812,17.0484102 10.2062812,15.2420039 C10.2062812,13.4355977 8.73662109,11.9659375 6.93021484,11.9659375 Z" id="Path"></path>
                <path d="M17.560125,13.4388633 L16.8729687,13.4388633 L16.8729687,12.7516211 C16.8729687,12.3176797 16.5211836,11.9658945 16.0872422,11.9658945 L14.0523281,11.9658945 C13.6183867,11.9658945 13.2666016,12.3176797 13.2666016,12.7516211 L13.2666016,13.4388203 L12.5794023,13.4388203 C12.1454609,13.4388203 11.7936758,13.7906055 11.7936758,14.2245469 L11.7936758,16.2594609 C11.7936758,16.6934023 12.1454609,17.0451875 12.5794023,17.0451875 L13.2666016,17.0451875 L13.2666016,17.7323867 C13.2666016,18.1663281 13.6183867,18.5181133 14.0523281,18.5181133 L16.0872422,18.5181133 C16.5211836,18.5181133 16.8729687,18.1663281 16.8729687,17.7323867 L16.8729687,17.0451875 L17.560168,17.0451875 C17.9941094,17.0451875 18.3458945,16.6934023 18.3458945,16.2594609 L18.3458945,14.2246328 C18.3458945,13.7906055 17.9940664,13.4388633 17.560125,13.4388633 Z" id="Path"></path>
            </g>
        </g>
    </g>
</svg>
