<?xml version="1.0" encoding="UTF-8"?>
<svg width="22px" height="22px" viewBox="0 0 22 22" version="1.1" xmlns="http://www.w3.org/2000/svg" xmlns:xlink="http://www.w3.org/1999/xlink">
    <title>warehouse</title>
    <g id="Symbols" stroke="none" stroke-width="1" fill="none" fill-rule="evenodd">
        <g id="Icons/icon-units" fill="#555555" fill-rule="nonzero">
            <g id="warehouse">
                <path d="M21.8573592,21.042551 L21.8573592,5.48989796 C21.8573592,5.1172449 21.6687878,4.7894898 21.3455224,4.65030612 L11.301849,0.0707142857 C11.0683796,-0.0235714286 10.7900122,-0.0235714286 10.5565429,0.0707142857 L0.512869388,4.65030612 C0.185114286,4.7894898 0.00103265306,5.1172449 0.00103265306,5.48989796 L0.00103265306,21.042551 C0.00103265306,21.5543878 0.423073469,21.9764286 0.934910204,21.9764286 C1.44674694,21.9764286 1.86878776,21.5543878 1.86878776,21.042551 L1.86878776,6.09602041 L11.0234816,1.93846939 L20.1287878,6.09602041 L20.1287878,21.042551 C20.1287878,21.5543878 20.5508286,21.9764286 21.0626653,21.9764286 C21.574502,21.9764286 22.0010327,21.5588776 21.8573592,21.042551 Z" id="Path"></path>
                <path d="M14.0136857,12.8217347 C14.5255224,12.8217347 14.9475633,12.3996939 14.9475633,11.8878571 L14.9475633,5.86255102 C14.9475633,5.35071429 14.5255224,4.92867347 14.0136857,4.92867347 L7.98837959,4.92867347 C7.47654286,4.92867347 7.05450204,5.35071429 7.05450204,5.86255102 L7.05450204,11.8878571 C7.05450204,12.3996939 7.47654286,12.8217347 7.98837959,12.8217347 L14.0136857,12.8217347 Z M8.92225714,6.84581633 L13.0798082,6.84581633 L13.0798082,11.0033673 L8.92225714,11.0033673 L8.92225714,6.84581633 L8.92225714,6.84581633 Z" id="Shape"></path>
                <path d="M9.52837959,14.0833673 L3.50307347,14.0833673 C2.99123673,14.0833673 2.56919592,14.5054082 2.56919592,15.0172449 L2.56919592,21.042551 C2.56919592,21.5543878 2.99123673,21.9764286 3.50307347,21.9764286 L9.52837959,21.9764286 C10.0402163,21.9764286 10.4622571,21.5543878 10.4622571,21.042551 L10.4622571,15.0172449 C10.4622571,14.5054082 10.0402163,14.0833673 9.52837959,14.0833673 Z M8.59450204,20.1580612 L4.43695102,20.1580612 L4.43695102,16.0005102 L8.59450204,16.0005102 L8.59450204,20.1580612 Z" id="Shape"></path>
                <path d="M18.494502,14.0833673 L12.4691959,14.0833673 C11.9573592,14.0833673 11.5353184,14.5054082 11.5353184,15.0172449 L11.5353184,21.042551 C11.5353184,21.5543878 11.9573592,21.9764286 12.4691959,21.9764286 L18.494502,21.9764286 C19.0063388,21.9764286 19.4283796,21.5543878 19.4283796,21.042551 L19.4283796,15.0172449 C19.4283796,14.5054082 19.0108286,14.0833673 18.494502,14.0833673 Z M17.5606245,20.1580612 L13.4030735,20.1580612 L13.4030735,16.0005102 L17.5606245,16.0005102 L17.5606245,20.1580612 L17.5606245,20.1580612 Z" id="Shape"></path>
            </g>
        </g>
    </g>
</svg>
