<?xml version="1.0" encoding="UTF-8"?>
<svg width="23px" height="22px" viewBox="0 0 23 22" version="1.1" xmlns="http://www.w3.org/2000/svg" xmlns:xlink="http://www.w3.org/1999/xlink">
    <title>07149ae72f0e1c838b8e23d4c780b8f8</title>
    <g id="Symbols" stroke="none" stroke-width="1" fill="none" fill-rule="evenodd">
        <g id="Icons/icon-role-management" fill="#555555" fill-rule="nonzero">
            <g id="07149ae72f0e1c838b8e23d4c780b8f8" transform="translate(0.400000, 0.000000)">
                <path d="M9.95270133,10.988787 C10.0805301,10.8609582 10.2038736,10.7443425 10.3227319,10.6366972 C10.0782875,10.4954128 9.82487258,10.3675841 9.56248726,10.2554536 C9.95942915,9.99755352 10.3586137,9.69480122 10.7174312,9.33598369 C11.7512742,8.30438328 12.320897,6.92966361 12.320897,5.46748216 C12.320897,4.00530071 11.7490316,2.63506626 10.7174312,1.59898063 C9.68134557,0.569622834 8.3088685,0 6.84668705,0 C5.38450561,0 4.01202854,0.569622834 2.97818552,1.60346585 C1.94434251,2.63506626 1.37471967,4.00978593 1.37471967,5.47196738 C1.37471967,6.93414883 1.94434251,8.30662589 2.97818552,9.34046891 C3.35270133,9.71498471 3.7675841,10.0267074 4.21834862,10.2733945 C3.41997961,10.6187564 2.63955148,11.10316 2.01834862,11.7243629 C1.39266055,12.350051 0.897043833,13.0811417 0.551681957,13.895209 C0.192864424,14.7361876 0.0134556575,15.6287462 0.0134556575,16.5482161 L0.0134556575,21.293578 C0.0134556575,21.672579 0.32069317,21.9798165 0.69969419,21.9798165 C1.07869521,21.9798165 1.38593272,21.672579 1.38593272,21.293578 L1.38593272,16.5459735 C1.39041794,15.0972477 1.96004077,13.7292559 2.99164118,12.6954128 C4.02324159,11.6638124 5.45626911,11.0941896 6.90723751,11.0941896 C7.75942915,11.0941896 8.58246687,11.2915392 9.32701325,11.6638124 C9.50417941,11.459735 9.71946993,11.2220183 9.95270133,10.988787 Z M6.87135576,9.61630989 C5.77023445,9.61630989 4.73639144,9.18572885 3.95820591,8.40978593 C3.17777778,7.63160041 2.75168196,6.59775739 2.75168196,5.4988787 C2.75168196,4.4 3.182263,3.36391437 3.95820591,2.58797146 C4.73414883,1.80754332 5.76799185,1.37696228 6.87135576,1.37696228 C7.97247706,1.37696228 9.00632008,1.80754332 9.78450561,2.58348624 C10.5649337,3.36391437 10.9932722,4.4 10.9932722,5.49663609 C10.9932722,6.59775739 10.5626911,7.63160041 9.78674822,8.40754332 C9.00407747,9.18572885 7.97023445,9.61630989 6.87135576,9.61630989 Z" id="Shape"></path>
                <path d="M21.2061162,14.8146789 L21.1635066,14.550051 L20.1633028,14.2159021 C20.0668705,13.9109072 19.9457696,13.6148828 19.7977574,13.3345566 L20.270948,12.3904179 L20.1139653,12.1728848 C19.7259939,11.6413863 19.2595311,11.1749235 18.72579,10.7891947 L18.5082569,10.632212 L17.5641182,11.10316 C17.283792,10.9551478 16.9900102,10.8340469 16.6827727,10.7376147 L16.3486239,9.73965341 L16.0862385,9.69928644 C15.7319062,9.6432212 15.4201835,9.61406728 15.1084608,9.61406728 C14.796738,9.61406728 14.4850153,9.6432212 14.1284404,9.69928644 L13.8638124,9.74189602 L13.5296636,10.7443425 C13.2246687,10.8407747 12.9286442,10.959633 12.648318,11.1098879 L11.706422,10.6366972 L11.4888889,10.7936799 C10.9551478,11.1794088 10.4909276,11.6458716 10.1029562,12.17737 L9.9459735,12.3949032 L10.4191641,13.3390418 C10.2711519,13.619368 10.150051,13.9153925 10.0536188,14.2203874 L9.05341488,14.5522936 L9.0108053,14.8169215 C8.95474006,15.1734964 8.92558614,15.491947 8.92558614,15.7969419 C8.92558614,16.1019368 8.95249745,16.4203874 9.0108053,16.7769623 L9.05341488,17.0415902 L10.0536188,17.375739 C10.1478084,17.6807339 10.2689093,17.9767584 10.4191641,18.2570846 L9.95045872,19.196738 L10.1074414,19.4142712 C10.3160041,19.7035678 10.5245668,19.9480122 10.7398573,20.1655454 C10.9573904,20.3830785 11.2018349,20.5893986 11.4888889,20.8002039 L11.706422,20.9571865 L12.6505607,20.4862385 C12.9308869,20.6342508 13.2246687,20.7575943 13.5319062,20.8517839 L13.866055,21.8542304 L14.130683,21.89684 C14.4872579,21.9529052 14.8079511,21.9820591 15.1107034,21.9820591 C15.4134557,21.9820591 15.7341488,21.9551478 16.0907238,21.89684 L16.3553517,21.8542304 L16.6895005,20.8517839 C16.9944954,20.7553517 17.2905199,20.6342508 17.5708461,20.4862385 L18.5149847,20.9571865 L18.7325178,20.8002039 C19.0218145,20.5916412 19.2662589,20.3853211 19.4815494,20.1655454 C19.6990826,19.9480122 19.9054027,19.7035678 20.1139653,19.4142712 L20.270948,19.196738 L19.7977574,18.2525994 C19.9457696,17.9722732 20.0691131,17.6762487 20.1633028,17.3712538 L21.1635066,17.037105 L21.2061162,16.7724771 C21.2621814,16.4159021 21.2913354,16.0974516 21.2913354,15.7924567 C21.2913354,15.491947 21.2644241,15.1712538 21.2061162,14.8146789 Z M19.9143731,15.7857288 L19.9143731,15.7879715 L19.9143731,15.7902141 C19.9143731,15.9718654 19.9009174,16.1669725 19.8740061,16.3777778 L19.380632,16.5414883 L19.0442406,16.6558614 L18.9410805,16.9944954 C18.8715596,17.2232416 18.7796126,17.4475025 18.6674822,17.6583078 L18.5015291,17.9700306 L18.6585117,18.2862385 L18.8895005,18.7504587 C18.7616718,18.9186544 18.633843,19.0644241 18.5037717,19.1944954 L18.5037717,19.1944954 L18.5037717,19.1944954 C18.3737003,19.3245668 18.2279307,19.4523955 18.0619776,19.5802243 L17.5977574,19.3492355 L17.283792,19.1922528 L16.9720693,19.3537207 C16.7545362,19.4658512 16.5280326,19.5600408 16.3015291,19.6318043 L15.9651376,19.7372069 L15.8552497,20.0691131 L15.6915392,20.5624873 C15.4807339,20.5893986 15.2878695,20.6028542 15.1039755,20.6028542 C14.9223242,20.6028542 14.7294597,20.5893986 14.5164118,20.5624873 L14.3527013,20.0691131 L14.2428135,19.7327217 L13.9041794,19.6295617 C13.6754332,19.5577982 13.4511723,19.4680938 13.240367,19.3559633 L12.9286442,19.1900102 L12.6124363,19.3469929 L12.1482161,19.5779817 C11.982263,19.4501529 11.8364934,19.3223242 11.706422,19.1922528 C11.5741081,19.0599388 11.4462793,18.9141692 11.3206932,18.7482161 L11.551682,18.2862385 L11.7086646,17.9722732 L11.5449541,17.6605505 C11.4328236,17.4452599 11.338634,17.220999 11.2691131,16.9944954 L11.1659531,16.6558614 L10.8318043,16.5437309 L10.3384302,16.3800204 C10.3115189,16.1692151 10.2980632,15.9763507 10.2980632,15.7924567 C10.2980632,15.6085627 10.3115189,15.4156983 10.3384302,15.204893 L10.8318043,15.0479103 L11.1659531,14.9357798 L11.2691131,14.5993884 C11.3408767,14.3683996 11.4350663,14.1441386 11.5449541,13.9310907 L11.7086646,13.619368 L11.551682,13.3054027 L11.3206932,12.8411825 C11.562895,12.5317023 11.8409786,12.2536188 12.1504587,12.0114169 L12.6124363,12.2424057 L12.9286442,12.3993884 L13.240367,12.2356779 C13.4511723,12.12579 13.6754332,12.0316004 13.9086646,11.9598369 L14.2450561,11.8544343 L14.3571865,11.5202854 L14.520897,11.0269113 C14.7361876,11 14.9245668,10.9865443 15.1062181,10.9865443 C15.2923547,10.9865443 15.4807339,11 15.6915392,11.0269113 L15.8552497,11.5180428 L15.9673802,11.8521916 L16.3037717,11.9553517 C16.5347604,12.0271152 16.7590214,12.1213048 16.9720693,12.2311927 L17.283792,12.3949032 L17.5977574,12.2379205 L18.059735,12.0069317 C18.3692151,12.2491335 18.6472987,12.5272171 18.8917431,12.8366972 L18.6607543,13.2986748 L18.5037717,13.6126402 L18.6652396,13.9221203 C18.77737,14.1396534 18.8715596,14.366157 18.9433231,14.5949032 L19.0487258,14.9312946 L19.3828746,15.0434251 L19.8762487,15.2071356 C19.9054027,15.4179409 19.9166157,15.6085627 19.9143731,15.7857288 Z" id="Shape"></path>
                <path d="M15.1084608,13.7359837 C13.9714577,13.7359837 13.0475025,14.6599388 13.0475025,15.7969419 C13.0475025,16.933945 13.9714577,17.8579001 15.1084608,17.8579001 C16.2454638,17.8579001 17.169419,16.933945 17.169419,15.7969419 C17.169419,14.6599388 16.2454638,13.7359837 15.1084608,13.7359837 Z M15.5928644,16.2813456 C15.4627931,16.4114169 15.2901121,16.4831804 15.1062181,16.4831804 C14.9223242,16.4831804 14.7496432,16.4114169 14.6195719,16.2813456 C14.4895005,16.1512742 14.417737,15.9785933 14.417737,15.7946993 C14.417737,15.6108053 14.4895005,15.4381244 14.6195719,15.308053 C14.7496432,15.1779817 14.9223242,15.1062181 15.1062181,15.1062181 C15.2901121,15.1062181 15.4627931,15.1779817 15.5928644,15.308053 C15.7229358,15.4381244 15.7946993,15.6108053 15.7946993,15.7946993 C15.7946993,15.9808359 15.7229358,16.1512742 15.5928644,16.2813456 Z" id="Shape"></path>
            </g>
        </g>
    </g>
</svg>
