<?xml version="1.0" encoding="UTF-8"?>
<svg width="22px" height="19px" viewBox="0 0 22 19" version="1.1" xmlns="http://www.w3.org/2000/svg" xmlns:xlink="http://www.w3.org/1999/xlink">
    <title>8ab6dcc4c7c0af0f4a4e8ccceb83cdbe</title>
    <g id="Symbols" stroke="none" stroke-width="1" fill="none" fill-rule="evenodd">
        <g id="Icons/icon-users" transform="translate(0.000000, -2.000000)" fill="#555555" fill-rule="nonzero">
            <g id="8ab6dcc4c7c0af0f4a4e8ccceb83cdbe" transform="translate(0.000000, 2.000000)">
                <path d="M11.1209776,9.94928717 C12.6757637,9.02179226 13.7264766,7.30794297 13.7264766,5.34989817 C13.7264766,2.40610998 11.3651731,0.00896130346 8.46171079,0.00896130346 C5.55824847,0.00896130346 3.19694501,2.40386965 3.19694501,5.34989817 C3.19694501,7.34378819 4.28126273,9.08452138 5.88309572,10.0008147 C2.70407332,11.0380855 0.342769857,13.8631365 0.0246435845,17.3782077 C-0.00896130346,17.7613035 0.273319756,18.0995927 0.656415479,18.1354379 C1.0395112,18.1712831 1.37780041,17.8867617 1.41364562,17.503666 C1.7496945,13.7735234 4.83014257,10.9619145 8.57820774,10.9619145 C12.3262729,10.9619145 15.406721,13.7757637 15.7427699,17.503666 C15.7763747,17.8665988 16.0788187,18.1376782 16.4350305,18.1376782 C16.4551935,18.1376782 16.4775967,18.1376782 16.4977597,18.1354379 C16.8808554,18.101833 17.1631365,17.7613035 17.1295316,17.3782077 C16.8069246,13.8071283 14.3761711,10.9462322 11.1209776,9.94928717 L11.1209776,9.94928717 Z M4.58818737,5.34989817 C4.58818737,3.17454175 6.32443992,1.40244399 8.45947047,1.40244399 C10.594501,1.40244399 12.3307536,3.17230143 12.3307536,5.34989817 C12.3307536,7.52525458 10.594501,9.29735234 8.45947047,9.29735234 C6.32668024,9.29735234 4.58818737,7.52525458 4.58818737,5.34989817 L4.58818737,5.34989817 Z" id="Shape"></path>
                <path d="M21.9753564,17.3782077 C21.6527495,13.8071283 19.2242363,10.9462322 15.9690428,9.94928717 C17.5238289,9.02179226 18.5723014,7.3101833 18.5723014,5.34989817 C18.5723014,2.40610998 16.210998,0.00896130346 13.3075356,0.00896130346 C12.6556008,0.00896130346 12.0327902,0.1299389 11.4570265,0.349490835 C11.9745418,0.631771894 12.4405295,0.999185336 12.8370672,1.43156823 C12.9916497,1.4114053 13.1484725,1.40244399 13.309776,1.40244399 C15.4448065,1.40244399 17.1810591,3.17230143 17.1810591,5.34989817 C17.1810591,7.52525458 15.4448065,9.29735234 13.309776,9.29735234 C13.1484725,9.29735234 12.987169,9.28615071 12.8303462,9.26598778 C12.6443992,9.46089613 12.4450102,9.6401222 12.2321792,9.80590631 C12.7205703,10.0254582 13.186558,10.2898167 13.6211813,10.594501 C13.8384929,10.7177189 14.0446029,10.8543788 14.2417515,11.006721 C17.6089613,11.3808554 20.2749491,14.0468432 20.5863544,17.503666 C20.6199593,17.8665988 20.9224033,18.1376782 21.2786151,18.1376782 C21.298778,18.1376782 21.3211813,18.1376782 21.3413442,18.1354379 C21.7266802,18.0995927 22.0089613,17.7613035 21.9753564,17.3782077 Z" id="Path"></path>
            </g>
        </g>
    </g>
</svg>
