<?xml version="1.0" encoding="UTF-8"?>
<svg width="40px" height="40px" viewBox="0 0 40 40" version="1.1" xmlns="http://www.w3.org/2000/svg" xmlns:xlink="http://www.w3.org/1999/xlink">
    <title>button-new-walk-in</title>
    <g id="Navigation" stroke="none" stroke-width="1" fill="none" fill-rule="evenodd">
        <g id="Desktop-HD" transform="translate(-40.000000, -73.000000)">
            <g id="Group" transform="translate(40.000000, 73.000000)">
                <rect id="Rectangle" stroke="#979797" fill="#F2F2F2" x="0.5" y="0.5" width="39" height="39" rx="8"></rect>
                <g transform="translate(10.692308, 9.000000)" fill="#555555" fill-rule="nonzero" id="icon-walking">
                    <g id="Walking-595b40b65ba036ed117d4d72" transform="translate(2.487076, 0.000000)">
                        <path d="M7.87573964,0 C6.73109457,0 5.80317658,0.947089931 5.80317658,2.11538462 C5.80317658,3.2836793 6.73109457,4.23076923 7.87573964,4.23076923 C9.02038472,4.23076923 9.94830271,3.2836793 9.94830271,2.11538462 C9.94830271,0.947089931 9.02038472,0 7.87573964,0 Z M5.7513625,5.07692308 C5.21995733,5.07692308 5.0133228,5.26180769 4.68917393,5.44711538 L1.94302787,7.82692308 C1.70095251,7.96907692 1.57121006,8.19013462 1.47670118,8.48798077 L0.880839302,12.5072115 C0.797107755,13.1485962 1.12705979,13.4060385 1.50260822,13.4855769 C1.80686048,13.5498846 2.26717674,13.4068846 2.35754049,12.9567308 C2.43215276,12.5861154 2.97930941,9.30769231 2.97930941,9.30769231 L4.76689505,7.90625 C4.47342012,9.30071154 4.16688804,10.82675 4.06740501,11.34375 C3.89745484,12.2322115 4.34844457,12.9063846 4.68917393,13.4326923 C5.00171644,13.915 9.02663391,20.4200192 9.55969713,21.1274038 C10.0927604,21.8347885 10.5769111,22.18425 11.3213757,21.7620192 C11.9431447,21.4091731 11.8484285,20.5894615 11.502725,19.9903846 C11.1570215,19.3913077 7.07262146,12.6129808 7.07262146,12.6129808 L7.77211149,9.59855769 C7.77211149,9.59855769 8.25294612,10.2943077 8.49750856,10.6826923 C8.61440112,10.868 8.72155263,10.9519808 9.04155637,11.1322115 C9.4171048,11.34375 11.2330846,12.1748846 11.7877024,12.4278846 C12.2793144,12.6521154 12.914555,12.7399038 13.1607755,12.2956731 C13.406996,11.8514423 13.089272,11.3312692 12.7203558,11.1586538 C12.3182786,10.9708077 9.63741825,9.59855769 9.63741825,9.59855769 C9.63741825,9.59855769 8.67491996,7.55425 8.1866241,6.42548077 C7.72734413,5.36186538 7.419154,5.07692308 6.761737,5.07692308 L5.7513625,5.07692308 Z M3.70470648,13.8822115 L2.87568125,16.84375 C2.87568125,16.84375 1.15275958,19.4101346 0.673582996,20.1225962 C0.314615073,20.6573654 0.0317102149,21.2864808 0.647675958,21.7620192 C1.33825397,22.2950962 1.89577344,21.6179615 2.25391233,21.2067308 C2.58220632,20.8293462 3.92253286,18.9159808 4.30056836,18.4302885 C4.551763,18.1070577 4.68585783,17.8293077 4.79280209,17.5576923 C4.86409826,17.3757692 5.13767658,16.6419423 5.31094285,16.15625 L3.70470648,13.8822115 Z" id="Shape"></path>
                    </g>
                </g>
            </g>
        </g>
    </g>
</svg>
