<svg id="Layer_1" data-name="Layer 1" xmlns="http://www.w3.org/2000/svg" viewBox="0 0 207.03 61.67"><defs><style>.cls-1{fill:#fff;}</style></defs><path class="cls-1" d="M33.64,35.63a8.71,8.71,0,0,1,1.67,5.43A8,8,0,0,1,31.86,48q-3.43,2.43-10,2.43H4.72V16H20.85c4.06,0,7.2.79,9.39,2.38a7.68,7.68,0,0,1,3.3,6.57,8.68,8.68,0,0,1-1.18,4.52,8,8,0,0,1-3.25,3.05A9.18,9.18,0,0,1,33.64,35.63ZM11.11,21v9.49h9.05a9.15,9.15,0,0,0,5.14-1.21,4,4,0,0,0,1.8-3.51,4,4,0,0,0-1.8-3.57A9.24,9.24,0,0,0,20.16,21ZM28.86,40.42q0-5-7.42-5H11.11v9.94H21.44Q28.87,45.39,28.86,40.42Z"/><path class="cls-1" d="M41.84,48.51a8.42,8.42,0,0,1-2.29-6.32V16H45.7V41.75q0,3.93,3.69,3.93a4.85,4.85,0,0,0,2.21-.49l.3,4.92a10.68,10.68,0,0,1-3.69.64A8.73,8.73,0,0,1,41.84,48.51Z"/><path class="cls-1" d="M80.5,24.14V50.4H74.65V47.06A9.74,9.74,0,0,1,71,49.79a11.89,11.89,0,0,1-4.77,1,11.43,11.43,0,0,1-8.29-2.93q-3-2.93-3-8.68v-15H61V38.31a7.61,7.61,0,0,0,1.59,5.28,5.86,5.86,0,0,0,4.55,1.75,6.88,6.88,0,0,0,5.24-2,8.18,8.18,0,0,0,1.94-5.88V24.14Z"/><path class="cls-1" d="M106.19,42.68l3.24,3.79a10.67,10.67,0,0,1-4.42,3.2A17.75,17.75,0,0,1,91.29,49a12.36,12.36,0,0,1-5.09-4.8,13.52,13.52,0,0,1-1.8-7,13.7,13.7,0,0,1,1.75-6.91A12.4,12.4,0,0,1,91,25.57a14.91,14.91,0,0,1,13.67-.12A12,12,0,0,1,109.43,30a13.34,13.34,0,0,1,1.77,7L91.09,40.91a6.79,6.79,0,0,0,3,3.44,9.83,9.83,0,0,0,5,1.19A9.69,9.69,0,0,0,106.19,42.68ZM92.44,31a8.32,8.32,0,0,0-2.09,5.95v0l14.85-2.85a6.92,6.92,0,0,0-2.58-3.89,7.54,7.54,0,0,0-4.69-1.47A7.19,7.19,0,0,0,92.44,31Z"/><path class="cls-1" d="M118.83,49.74a13.13,13.13,0,0,1-4.5-2.29l1.58-2.75A13.24,13.24,0,0,0,120,46.79a16.22,16.22,0,0,0,5.11.81,9.75,9.75,0,0,0,5.24-1.11,3.51,3.51,0,0,0,1.7-3.12,2.79,2.79,0,0,0-.94-2.24,6.22,6.22,0,0,0-2.36-1.23,37.84,37.84,0,0,0-3.78-.81,42.91,42.91,0,0,1-5.07-1.2,7.46,7.46,0,0,1-3.27-2.09,5.84,5.84,0,0,1-1.35-4.08A6.41,6.41,0,0,1,118,26.4c1.81-1.37,4.31-2.06,7.53-2.06a19.59,19.59,0,0,1,5,.66,14,14,0,0,1,4.13,1.75l-1.52,2.8a13.08,13.08,0,0,0-7.62-2.21,8.81,8.81,0,0,0-5,1.18,3.63,3.63,0,0,0-1.7,3.1,3.06,3.06,0,0,0,1,2.36,5.9,5.9,0,0,0,2.38,1.3,37.08,37.08,0,0,0,3.94.86,48.41,48.41,0,0,1,5,1.18,7.35,7.35,0,0,1,3.19,2,5.52,5.52,0,0,1,1.33,3.93,6.25,6.25,0,0,1-2.83,5.39c-1.88,1.33-4.5,2-7.84,2A19.79,19.79,0,0,1,118.83,49.74Z"/><path class="cls-1" d="M149.58,37.42,143.48,43V50.4H140V11.91h3.49V38.65l15.44-14.11h4.33L152.18,35.11l12.1,15.29H160Z"/><path class="cls-1" d="M190.39,24.54V47.26q0,6.59-3,9.76t-9,3.17a19.13,19.13,0,0,1-6.42-1.06A12.65,12.65,0,0,1,167,56.21l1.77-2.66a11.53,11.53,0,0,0,4.13,2.61,14.74,14.74,0,0,0,5.26.93q4.47,0,6.59-2.29t2.11-7.1v-3a9.3,9.3,0,0,1-3.76,3.49,11.55,11.55,0,0,1-5.38,1.23,11,11,0,0,1-8-2.83c-2-1.88-2.93-4.65-2.93-8.28V24.54h3.49V38q0,4.08,2,6.2a7.56,7.56,0,0,0,5.75,2.11,8.44,8.44,0,0,0,6.44-2.48,9.61,9.61,0,0,0,2.36-6.91V24.54Z"/><path class="cls-1" d="M200.77,3.86l-3,.05-1.72-2.43-.88,2.84-2.83.89,2.43,1.71,0,3,2.37-1.78,2.82,1-1-2.81Z"/><path class="cls-1" d="M88.22,25.47a19.26,19.26,0,0,1,5.86-6.06,24.44,24.44,0,0,1,7.82-3.34,41.63,41.63,0,0,1,17-.22,78,78,0,0,1,16.18,5.22c5.2,2.19,10.33,4.6,15.34,7.21s9.75,5.73,15,7.32a27.12,27.12,0,0,0,16.24-.38A25.59,25.59,0,0,0,189,31.38a23.07,23.07,0,0,0,3-2.81,23.7,23.7,0,0,0,2.48-3.32,22.19,22.19,0,0,0,3-16.08,22.08,22.08,0,0,1-2.38,16.45,23.26,23.26,0,0,1-5.56,6.5A26.56,26.56,0,0,1,182,36.3,27.56,27.56,0,0,1,173.6,38a28.38,28.38,0,0,1-4.32-.17,29.26,29.26,0,0,1-4.24-.87c-5.57-1.64-10.37-4.79-15.35-7.31s-10-5.05-15.18-7.27A83.34,83.34,0,0,0,118.65,17a40.84,40.84,0,0,0-16.59-.2,24.29,24.29,0,0,0-7.76,2.95A20.22,20.22,0,0,0,88.22,25.47Z"/><path class="cls-1" d="M143.48,38.65l15.44-14.11h4.33L152.18,35.11l12.1,15.29H160l-10.42-13L143.48,43"/><path class="cls-1" d="M190.39,47.26q0,6.59-3,9.76t-9,3.17a19.13,19.13,0,0,1-6.42-1.06A12.65,12.65,0,0,1,167,56.21l1.77-2.66a11.53,11.53,0,0,0,4.13,2.61,14.74,14.74,0,0,0,5.26.93q4.47,0,6.59-2.29t2.11-7.1v-3a9.3,9.3,0,0,1-3.76,3.49,11.55,11.55,0,0,1-5.38,1.23,11,11,0,0,1-8-2.83c-2-1.88-2.93-4.65-2.93-8.28V24.54h3.49V38q0,4.08,2,6.2a7.56,7.56,0,0,0,5.75,2.11,8.44,8.44,0,0,0,6.44-2.48"/></svg>