<?xml version="1.0" encoding="UTF-8"?>
<svg id="Layer_1" data-name="Layer 1" xmlns="http://www.w3.org/2000/svg" width="148.88" height="57.68" viewBox="0 0 148.88 57.68">
  <g>
    <path d="M20,35.94c.56.67.84,1.53.84,2.58,0,1.35-.5,2.39-1.5,3.12-1,.73-2.47,1.09-4.43,1.09h-7.26v-15.77h6.8c1.76,0,3.12.35,4.09,1.06.97.71,1.45,1.71,1.45,3,0,.87-.21,1.61-.64,2.22-.43.61-1.02,1.06-1.77,1.36,1.04.23,1.84.67,2.4,1.34ZM9.33,28.34v5.72h5.02c1.28,0,2.26-.24,2.95-.73.69-.49,1.04-1.2,1.04-2.13s-.35-1.64-1.04-2.13c-.69-.49-1.68-.73-2.95-.73h-5.02ZM18.1,40.64c.72-.48,1.08-1.23,1.08-2.25,0-1.97-1.43-2.95-4.28-2.95h-5.57v5.93h5.57c1.41,0,2.48-.24,3.2-.72Z" fill="#0070b8"/>
    <path d="M24.67,26.96h1.67v14.33h8.83v1.44h-10.5v-15.77Z" fill="#0070b8"/>
    <path d="M38.8,41.11c-1.14-1.17-1.71-2.88-1.71-5.11v-9.04h1.67v8.97c0,1.83.41,3.2,1.24,4.1.83.9,2.02,1.35,3.58,1.35s2.78-.45,3.61-1.35c.83-.9,1.24-2.27,1.24-4.1v-8.97h1.62v9.04c0,2.24-.57,3.94-1.7,5.11-1.13,1.17-2.72,1.76-4.77,1.76s-3.64-.59-4.78-1.76Z" fill="#0070b8"/>
    <path d="M65.35,41.29v1.44h-11.15v-15.77h10.82v1.44h-9.15v5.61h8.16v1.42h-8.16v5.86h9.49Z" fill="#0070b8"/>
    <path d="M72.27,41.83c-1.25-.69-2.24-1.65-2.95-2.87-.71-1.22-1.07-2.59-1.07-4.11s.36-2.89,1.07-4.11c.71-1.22,1.7-2.18,2.96-2.87,1.26-.69,2.67-1.04,4.24-1.04,1.17,0,2.25.2,3.24.59.99.39,1.83.96,2.52,1.71l-1.06,1.06c-1.23-1.25-2.79-1.87-4.66-1.87-1.25,0-2.38.29-3.4.86-1.02.57-1.82,1.35-2.4,2.34-.58.99-.87,2.1-.87,3.34s.29,2.34.87,3.33c.58.99,1.38,1.77,2.4,2.34,1.02.57,2.16.86,3.4.86,1.89,0,3.45-.63,4.66-1.89l1.06,1.06c-.69.75-1.54,1.33-2.54,1.72-1,.4-2.08.6-3.26.6-1.56,0-2.97-.35-4.22-1.04Z" fill="#005088"/>
    <path d="M96.64,42.73l-3.61-5.07c-.41.04-.83.07-1.26.07h-4.24v5h-1.67v-15.77h5.9c2.01,0,3.59.48,4.73,1.44,1.14.96,1.71,2.28,1.71,3.97,0,1.23-.31,2.27-.94,3.12-.62.85-1.51,1.46-2.67,1.84l3.85,5.41h-1.83ZM95.31,35.28c.83-.69,1.24-1.66,1.24-2.91s-.41-2.26-1.24-2.94c-.83-.68-2.02-1.03-3.58-1.03h-4.19v7.91h4.19c1.56,0,2.76-.35,3.58-1.04Z" fill="#005088"/>
    <path d="M113.34,41.29v1.44h-11.15v-15.77h10.82v1.44h-9.15v5.61h8.16v1.42h-8.16v5.86h9.49Z" fill="#005088"/>
    <path d="M118.26,42.31c-1.07-.38-1.9-.87-2.49-1.49l.65-1.28c.57.57,1.33,1.03,2.28,1.39.95.35,1.92.53,2.93.53,1.41,0,2.47-.26,3.18-.78.71-.52,1.06-1.19,1.06-2.02,0-.63-.19-1.13-.57-1.51-.38-.38-.85-.66-1.41-.87-.56-.2-1.33-.42-2.32-.66-1.19-.3-2.13-.59-2.84-.87-.71-.28-1.31-.7-1.81-1.27-.5-.57-.75-1.34-.75-2.32,0-.8.21-1.52.63-2.17.42-.65,1.07-1.18,1.94-1.57.87-.39,1.95-.59,3.24-.59.9,0,1.78.12,2.65.37.86.25,1.61.59,2.24,1.03l-.56,1.33c-.66-.44-1.37-.76-2.12-.98-.75-.22-1.49-.33-2.21-.33-1.38,0-2.42.27-3.12.8-.7.53-1.05,1.22-1.05,2.06,0,.63.19,1.14.57,1.52.38.38.86.68,1.44.88.58.2,1.36.42,2.33.66,1.16.29,2.09.57,2.81.85.71.28,1.32.7,1.81,1.26s.74,1.33.74,2.29c0,.8-.21,1.52-.64,2.17-.43.65-1.09,1.17-1.97,1.55-.89.38-1.98.57-3.27.57-1.17,0-2.29-.19-3.37-.56Z" fill="#005088"/>
    <path d="M134.45,28.4h-5.54v-1.44h12.75v1.44h-5.54v14.33h-1.67v-14.33Z" fill="#005088"/>
  </g>
  <g>
    <path d="M11.85,55.38l-1.4-1.97c-.16.02-.32.03-.49.03h-1.65v1.95h-.65v-6.14h2.3c1.56,0,2.51.79,2.51,2.11,0,.97-.51,1.64-1.4,1.93l1.5,2.11h-.71ZM11.82,51.35c0-.98-.65-1.54-1.88-1.54h-1.63v3.08h1.63c1.23,0,1.88-.57,1.88-1.53Z" fill="#004b88"/>
    <path d="M25.88,54.82v.56h-4.34v-6.14h4.21v.56h-3.56v2.18h3.18v.55h-3.18v2.28h3.69Z" fill="#004b88"/>
    <path d="M34.36,54.64l.25-.5c.44.43,1.22.75,2.03.75,1.15,0,1.65-.48,1.65-1.09,0-1.68-3.78-.65-3.78-2.92,0-.9.7-1.68,2.26-1.68.69,0,1.41.2,1.9.54l-.22.52c-.53-.34-1.14-.51-1.68-.51-1.12,0-1.62.5-1.62,1.11,0,1.68,3.78.67,3.78,2.9,0,.9-.72,1.68-2.29,1.68-.92,0-1.82-.32-2.28-.8Z" fill="#004b88"/>
    <path d="M47.88,49.24h.65v6.14h-.65v-6.14Z" fill="#004b88"/>
    <path d="M58.07,49.24h2.5c1.97,0,3.29,1.26,3.29,3.07s-1.32,3.07-3.29,3.07h-2.5v-6.14ZM60.53,54.82c1.63,0,2.68-1.04,2.68-2.51s-1.05-2.51-2.68-2.51h-1.82v5.02h1.82Z" fill="#004b88"/>
    <path d="M77.19,54.82v.56h-4.34v-6.14h4.21v.56h-3.56v2.18h3.18v.55h-3.18v2.28h3.69Z" fill="#004b88"/>
    <path d="M91.39,49.24v6.14h-.54l-3.95-4.98v4.98h-.65v-6.14h.54l3.96,4.98v-4.98h.64Z" fill="#004b88"/>
    <path d="M102.12,49.8h-2.16v-.56h4.97v.56h-2.16v5.58h-.65v-5.58Z" fill="#004b88"/>
    <path d="M113.5,49.24h.65v6.14h-.65v-6.14Z" fill="#004b88"/>
    <path d="M127.54,53.74h-3.42l-.74,1.64h-.68l2.81-6.14h.64l2.81,6.14h-.68l-.74-1.64ZM127.3,53.22l-1.47-3.3-1.47,3.3h2.95Z" fill="#004b88"/>
    <path d="M137.51,49.24h.65v5.58h3.44v.56h-4.09v-6.14Z" fill="#004b88"/>
  </g>
  <polygon points="141.69 23.31 73.45 10.67 7.76 23.3 7.76 23.91 73.45 11.28 141.69 23.93 141.69 23.31" fill="#6ea9db"/>
  <path d="M64.85,10.35c.07-4.85,4.04-8.78,8.91-8.78s8.75,3.85,8.9,8.64l.63.12c-.08-5.18-4.32-9.38-9.53-9.38s-9.53,4.27-9.53,9.53l.63-.12Z" fill="#6ea9db"/>
</svg>