<?xml version="1.0" encoding="UTF-8"?>
<svg width="148px" height="28px" viewBox="0 0 148 28" version="1.1" xmlns="http://www.w3.org/2000/svg" xmlns:xlink="http://www.w3.org/1999/xlink">
    <title>logo-bluestone-properties</title>
    <defs>
        <filter id="filter-1">
            <feColorMatrix in="SourceGraphic" type="matrix" values="0 0 0 0 0.333333 0 0 0 0 0.333333 0 0 0 0 0.333333 0 0 0 1.000000 0"></feColorMatrix>
        </filter>
    </defs>
    <g id="Navigation" stroke="none" stroke-width="1" fill="none" fill-rule="evenodd">
        <g id="Desktop-HD" transform="translate(-47.000000, -1036.000000)">
            <g id="Bluestone-Properties-Logo" transform="translate(47.000000, 1036.000000)" filter="url(#filter-1)">
                <g>
                    <path d="M37.8309627,7.69563472 C38.9942544,6.9583727 39.6957362,5.64165955 39.6768568,4.23080783 C39.6768568,1.58143502 37.7699278,0 34.5763166,0 L31,0 L31,17 L35.5858673,17 C37.2173143,17 38.6046217,16.4779729 39.5943772,15.4936277 C40.4994458,14.5931837 41.0075149,13.3480545 40.999916,12.0492725 C40.999916,10.0004014 39.9341933,8.53667837 37.8309627,7.69563472 Z M36.5921187,6.38544907 C36.0015646,6.79317612 35.1322293,6.98253889 33.8570943,6.98253889 L32.9465192,6.98253889 L32.9465192,1.97039639 L34.8897392,1.97039639 C36.6267602,1.97039639 37.6643539,2.82338184 37.6643539,4.23592574 C37.6740523,5.09206437 37.2723387,5.89738471 36.5921187,6.38544907 L36.5921187,6.38544907 Z M36.6482049,14.8726543 C36.4832456,14.8863021 36.2984913,14.9084797 36.1071385,14.9306573 C35.6512524,14.9909565 35.1925447,15.0256954 34.7330279,15.0347215 L32.9465192,15.0347215 L32.9465192,8.94952333 L33.8801886,8.94952333 C35.4126601,8.94952333 36.615213,9.05188159 37.5092922,9.555143 C38.4127266,10.0499579 38.9822944,11.0159737 38.9939255,12.073156 C38.9873271,13.6818866 37.6247637,14.7890617 36.6482049,14.8726543 Z" id="Shape" fill="#FFFFFF" fill-rule="nonzero"></path>
                    <polygon id="Path" fill="#FFFFFF" fill-rule="nonzero" points="44.9120211 0 43 0 43 17 51 17 51 15.0347215 44.9120211 15.0347215"></polygon>
                    <path d="M64.0551393,11.4872724 C64.0551393,12.7438809 64.0551393,13.8290582 63.2392868,14.8476601 C62.5899011,15.6798512 61.6932874,16.0759742 60.5,16.0759742 C59.3067126,16.0759742 58.4100989,15.6731937 57.759065,14.8459957 C56.9349715,13.8290582 56.9349715,12.7438809 56.9349715,11.4872724 L56.9349715,1.00166438 L55,1.00166438 L55,11.7435872 C55,15.6016252 57.1080312,18 60.5,18 C63.8919688,18 66,15.5949677 66,11.7435872 L66,1 L64.0551393,1 L64.0551393,11.4872724 Z" id="Path" fill="#FFFFFF" fill-rule="nonzero"></path>
                    <polygon id="Path" fill="#FFFFFF" fill-rule="nonzero" points="68 17 78 17 78 15.0347215 70.041205 15.0347215 70.041205 8.80963372 78 8.80963372 78 6.84435524 70.041205 6.84435524 70.041205 1.96527847 78 1.96527847 78 0 68 0"></polygon>
                    <path d="M83.8870533,6.74225029 L83.5667566,6.49942595 C82.6766689,5.81056257 82.16588,4.91504018 82.16588,4.03673938 C82.16588,3.06371986 82.8722185,2.07692308 84.2208361,2.07692308 C85.5188806,2.07692308 86.2673635,2.9380023 87.113621,4.07118255 L87.2164531,4.20895522 L88.8095078,2.94661309 L88.7134187,2.81056257 C87.6631827,1.35017222 86.3988537,0 84.266352,0 C81.8961564,0 80.1041807,1.7652124 80.1041807,4.10734788 C80.1041807,5.37141217 80.7194875,6.78702641 81.5657451,7.47244546 C82.1220499,7.93398393 82.6345246,8.34902411 83.1014835,8.72962113 C85.7346595,10.8685419 86.936615,11.8432836 86.936615,13.3346728 C86.936615,14.826062 85.6756575,16.0160735 84.0606878,16.0160735 C82.8469319,16.0160735 81.7006069,15.0826636 80.7700607,13.3174512 L80.6857721,13.1590126 L79,14.2043628 L79.0758597,14.3490241 C80.4244774,16.8737084 82.0074174,18 84.1989211,18 C86.8455833,18 89,15.8938002 89,13.3071183 C88.9983142,10.6033295 86.847269,8.98450057 83.8870533,6.74225029 Z" id="Path" fill="#FFFFFF" fill-rule="nonzero"></path>
                    <polygon id="Path" fill="#FFFFFF" fill-rule="nonzero" points="91 1.96527847 94.963656 1.96527847 94.963656 17 97.0849226 17 97.0849226 1.96527847 101 1.96527847 101 0 91 0"></polygon>
                    <path d="M109.87138,0 C104.898056,0 101,3.98393113 101,9.0697274 C101,14.0763271 104.958079,18 110.012005,18 C115.06593,18 119,14.0401722 119,8.99913917 C119,3.86857963 115.074505,0 109.87138,0 Z M116.90263,8.97675753 C116.90263,12.989957 113.918636,16.0166428 109.960556,16.0166428 C106.107088,16.0166428 103.088796,12.964132 103.088796,9.0697274 C103.088796,4.63472023 106.583841,1.98335725 109.960556,1.98335725 C113.376715,1.98335725 116.906059,4.59856528 116.906059,8.97675753 L116.90263,8.97675753 Z" id="Shape" fill="#FFFFFF" fill-rule="nonzero"></path>
                    <polygon id="Path" fill="#FFFFFF" fill-rule="nonzero" points="132.049255 12.4723532 121.628739 0.0580030105 121.579101 0 121 0 121 17 122.950745 17 122.950745 4.68459609 133.399389 17 134 17 134 0 132.049255 0"></polygon>
                    <polygon id="Path" fill="#FFFFFF" fill-rule="nonzero" points="148 1.96527847 148 0 138 0 138 17 148 17 148 15.0347215 140.042583 15.0347215 140.042583 8.80963372 148 8.80963372 148 6.84435524 140.042583 6.84435524 140.042583 1.96527847"></polygon>
                    <path d="M1,22.004853 L2.1051147,22.004853 C2.47895329,21.9826915 2.85318899,22.0365332 3.21329491,22.1642882 C3.69603702,22.3826033 4.01289313,22.9639278 3.99959705,23.6068884 C4.01042292,24.1342092 3.80058971,24.6302851 3.44627332,24.9150253 C3.10753497,25.1820312 2.61552135,25.2146866 1.95643769,25.2146866 L1.4797516,25.2146866 L1.4797516,28 L1,28 L1,22.004853 Z M1.4797516,22.5811247 L1.4797516,24.6172849 C1.75258158,24.6172849 2.02541156,24.6172849 2.27065199,24.6172849 C2.68296247,24.6172849 3.00330779,24.5827086 3.21636041,24.3656462 C3.39254154,24.1711164 3.49404184,23.8915468 3.49532141,23.5972839 C3.49473404,23.2930243 3.3849801,23.0052317 3.19643463,22.8135543 C2.983382,22.6214637 2.69675725,22.5868874 2.32429834,22.5868874 L1.4797516,22.5811247 Z" id="Shape" fill="#FFFFFF" fill-rule="nonzero"></path>
                    <path d="M17,22.0057577 L18.0756134,22.0057577 C18.4426637,21.9817281 18.8103537,22.0330172 19.1647471,22.1576811 C19.6391104,22.3738858 19.9500086,22.9576567 19.9339009,23.6019146 C19.9418637,23.8606551 19.8946027,24.117283 19.7971958,24.3442237 C19.555333,24.971148 19.0866299,25.2115331 18.3099649,25.2115331 L20,28 L19.4186279,28 L17.7361042,25.2115331 L17.4687031,25.2115331 L17.4687031,28 L17,28 L17,22.0057577 Z M17.4687031,22.5826819 L17.4687031,24.6211473 C17.7300951,24.6211473 17.9974962,24.6211473 18.2453681,24.6211473 C18.6494742,24.6211473 18.9619429,24.5711472 19.1647471,24.3615315 C19.3421619,24.1704457 19.4449067,23.8891049 19.4456685,23.5922992 C19.4456685,23.015375 19.1316975,22.5807588 18.4271407,22.5807588 L17.4687031,22.5826819 Z" id="Shape" fill="#FFFFFF" fill-rule="nonzero"></path>
                    <path d="M38.9999809,24.9892032 C39.0058199,26.6418137 37.6741797,27.9879636 36.0216962,27.9999198 C34.3692127,28.0118761 33.0182354,26.6851359 33.0001828,25.0326136 C32.9821301,23.3800913 34.3038009,22.0241509 35.9561511,22 C37.6798207,22 38.9999809,23.2928258 38.9999809,24.9892032 Z M33.5952352,25.0129415 C33.6233807,26.3367624 34.7155622,27.3891896 36.0394402,27.3681799 C37.3633181,27.3471702 38.4215583,26.2606161 38.4076873,24.9365687 C38.3938164,23.6125212 37.3130452,22.5483783 35.9890177,22.5550799 C35.344019,22.5583918 34.727333,22.820467 34.2772912,23.28255 C33.8272493,23.744633 33.5815241,24.3680435 33.5952352,25.0129415 L33.5952352,25.0129415 Z" id="Shape" fill="#FFFFFF" fill-rule="nonzero"></path>
                    <path d="M52,22.0058135 L53.1058257,22.0058135 C53.4790675,21.9816442 53.8529811,22.0329424 54.2131873,22.1577355 C54.6966122,22.3764523 55.0135839,22.9585954 54.9995523,23.6019556 C55.0101252,24.1293116 54.8006306,24.6255114 54.4466394,24.9115613 C54.1056765,25.178867 53.6126625,25.2115591 52.9522388,25.2115591 L52.4791912,25.2115591 L52.4791912,28 L52,28 L52,22.0058135 Z M52.4791912,22.5827323 L52.4791912,24.6211788 C52.7525758,24.6211788 53.0259605,24.6211788 53.2732355,24.6211788 C53.6863842,24.6211788 54.005845,24.5865637 54.2193308,24.3692576 C54.3963574,24.174962 54.4981695,23.8947883 54.498859,23.6000325 C54.4982704,23.2954313 54.3882933,23.0073155 54.1993645,22.8154229 C53.9858787,22.6231166 53.6986712,22.5885015 53.325455,22.5885015 L52.4791912,22.5827323 Z" id="Shape" fill="#FFFFFF" fill-rule="nonzero"></path>
                    <polygon id="Path" fill="#FFFFFF" fill-rule="nonzero" points="68 22 71 22 71 22.5782204 68.5275281 22.5782204 68.5275281 24.4728558 71 24.4728558 71 25.0510761 68.5275281 25.0510761 68.5275281 27.4217796 71 27.4217796 71 28 68 28"></polygon>
                    <path d="M84,22.0056783 L85.0771157,22.0056783 C85.4441615,21.9818466 85.811827,22.033133 86.1662494,22.1576037 C86.6406126,22.3738113 86.9515108,22.95759 86.9354031,23.6018564 C86.9426153,23.8605068 86.8954006,24.116886 86.798698,24.3441753 C86.5568353,24.9711079 86.0881322,25.2114962 85.3114672,25.2114962 L87,28 L86.4201302,28 L84.7376064,25.2114962 L84.4702053,25.2114962 L84.4702053,28 L84,28 L84,22.0056783 Z M84.4702053,22.5826102 L84.4702053,24.6211026 C84.7315974,24.6211026 84.9989985,24.6211026 85.2468703,24.6211026 C85.6509765,24.6211026 85.9634452,24.5711018 86.1662494,24.3614833 C86.3432707,24.1701935 86.4454851,23.8887967 86.4456685,23.5922408 C86.4456685,23.015309 86.1331998,22.580687 85.428643,22.580687 L84.4702053,22.5826102 Z" id="Shape" fill="#FFFFFF" fill-rule="nonzero"></path>
                    <polygon id="Path" fill="#FFFFFF" fill-rule="nonzero" points="99 22.5782204 99 22 102 22 102 22.5782204 100.772648 22.5782204 100.772648 28 100.225599 28 100.225599 22.5782204"></polygon>
                    <polygon id="Path" fill="#FFFFFF" fill-rule="nonzero" points="115 22 116 22 116 28 115 28"></polygon>
                    <polygon id="Path" fill="#FFFFFF" fill-rule="nonzero" points="130 22 133 22 133 22.5782204 130.527528 22.5782204 130.527528 24.4728558 133 24.4728558 133 25.0510761 130.527528 25.0510761 130.527528 27.4217796 133 27.4217796 133 28 130 28"></polygon>
                    <path d="M146.505223,23.2928682 C146.226498,22.8861365 145.982408,22.5929966 145.560198,22.5929966 C145.380737,22.5825034 145.20519,22.6537943 145.074135,22.7903902 C144.943079,22.9269861 144.867858,23.1170634 144.86586,23.3166858 C144.887057,23.6736431 145.056509,23.99934 145.324354,24.1979377 C146.290819,24.9949119 147,25.5427172 147,26.466108 C146.981093,27.3329283 146.333935,28.0190517 145.553601,27.9995963 C144.84442,27.9995963 144.379329,27.5635506 144,26.7922262 L144.437053,26.4972541 C144.743815,27.1256728 145.116548,27.4444625 145.51072,27.4444625 C145.753058,27.4568707 145.989831,27.3613193 146.168494,27.1790135 C146.347157,26.9967077 146.452931,26.7427272 146.462342,26.4734365 C146.462342,25.8450178 145.93293,25.4877535 144.765256,24.4379461 C144.488857,24.1547024 144.331098,23.7564058 144.329852,23.3386713 C144.326837,22.9749033 144.458442,22.6257242 144.693866,22.3728568 C144.92929,22.1199895 145.247868,21.9856286 145.575041,22.0012204 C146.205058,22.0012204 146.584387,22.422609 146.920836,22.9319396 L146.505223,23.2928682 Z" id="Path" fill="#FFFFFF" fill-rule="nonzero"></path>
                    <polygon id="Path" fill="#FFFFFF" fill-rule="nonzero" points="1 16 0 16 0 4.06737589 1 3"></polygon>
                    <polygon id="Path" fill="#FFFFFF" fill-rule="nonzero" points="11 17 12 17 12 2 11 2.9695463"></polygon>
                    <rect id="Rectangle" fill="#FFFFFF" fill-rule="nonzero" x="0" y="7" width="1" height="10"></rect>
                    <polygon id="Path" fill="#FFFFFF" fill-rule="nonzero" points="0 8.28198433 0 10 13 1.71801567 13 0"></polygon>
                    <polygon id="Path" fill="#FFFFFF" fill-rule="nonzero" points="0 16 0 16.980139 13 17 13 16.019861"></polygon>
                    <polygon id="Path" fill="#FFFFFF" fill-rule="nonzero" points="15 17 14 17 14 2 15 2.9695463"></polygon>
                    <rect id="Rectangle" fill="#FFFFFF" fill-rule="nonzero" x="25" y="10" width="1" height="7"></rect>
                    <polygon id="Path" fill="#FFFFFF" fill-rule="nonzero" points="27 8.28198433 27 10 14 1.71801567 14 0"></polygon>
                    <polygon id="Path" fill="#FFFFFF" fill-rule="nonzero" points="26.9359265 16 27 16.980139 14.0658052 17 14 16.019861"></polygon>
                    <rect id="Rectangle" fill="#FFFFFF" fill-rule="nonzero" x="14" y="8" width="1" height="11"></rect>
                </g>
            </g>
        </g>
    </g>
</svg>
